<svg width="165" height="149" viewBox="0 0 165 149" fill="none" xmlns="http://www.w3.org/2000/svg">
<path d="M73.6173 5.33398C75.0821 5.33398 76.2697 4.15108 76.2697 2.6919C76.2697 1.23271 75.0821 0.0498047 73.6173 0.0498047C72.1524 0.0498047 70.9648 1.23271 70.9648 2.6919C70.9648 4.15108 72.1524 5.33398 73.6173 5.33398Z" fill="#F8ECE3"/>
<path d="M20.418 5.33398C21.8829 5.33398 23.0704 4.15108 23.0704 2.6919C23.0704 1.23271 21.8829 0.0498047 20.418 0.0498047C18.9531 0.0498047 17.7656 1.23271 17.7656 2.6919C17.7656 4.15108 18.9531 5.33398 20.418 5.33398Z" fill="#F8ECE3"/>
<path d="M53.2213 5.36597L58.5762 5.36597V0.0319347L53.2213 0.0319347V5.36597Z" fill="#F8ECE3"/>
<path d="M0 0H5.35487L2.65241 5.33402L0 0Z" fill="#F8ECE3"/>
<path d="M35.4824 0H40.8373V5.33402L35.4824 0Z" fill="#F8ECE3"/>
<path d="M2.65241 23.5295C4.1173 23.5295 5.30482 22.3466 5.30482 20.8875C5.30482 19.4283 4.1173 18.2454 2.65241 18.2454C1.18752 18.2454 0 19.4283 0 20.8875C0 22.3466 1.18752 23.5295 2.65241 23.5295Z" fill="#F8ECE3"/>
<path d="M55.9005 23.5295C57.3653 23.5295 58.5529 22.3466 58.5529 20.8875C58.5529 19.4283 57.3653 18.2454 55.9005 18.2454C54.4356 18.2454 53.248 19.4283 53.248 20.8875C53.248 22.3466 54.4356 23.5295 55.9005 23.5295Z" fill="#F8ECE3"/>
<path d="M23.0707 18.2454H17.7158V23.5794H23.0707V18.2454Z" fill="#F8ECE3"/>
<path d="M76.3197 23.5794H70.9648L73.6173 18.2454L76.3197 23.5794Z" fill="#F8ECE3"/>
<path d="M40.8373 23.5794H35.4824V18.2454L40.8373 23.5794Z" fill="#F8ECE3"/>
<path d="M73.6173 41.7749C75.0821 41.7749 76.2697 40.592 76.2697 39.1328C76.2697 37.6736 75.0821 36.4907 73.6173 36.4907C72.1524 36.4907 70.9648 37.6736 70.9648 39.1328C70.9648 40.592 72.1524 41.7749 73.6173 41.7749Z" fill="#F8ECE3"/>
<path d="M20.418 41.7749C21.8829 41.7749 23.0704 40.592 23.0704 39.1328C23.0704 37.6736 21.8829 36.4907 20.418 36.4907C18.9531 36.4907 17.7656 37.6736 17.7656 39.1328C17.7656 40.592 18.9531 41.7749 20.418 41.7749Z" fill="#F8ECE3"/>
<path d="M53.2213 41.7988H58.5762V36.4648H53.2213V41.7988Z" fill="#F8ECE3"/>
<path d="M0 36.4409H5.35487L2.65241 41.7749L0 36.4409Z" fill="#F8ECE3"/>
<path d="M35.4824 36.4409H40.8373V41.7749L35.4824 36.4409Z" fill="#F8ECE3"/>
<path d="M2.65241 59.9705C4.1173 59.9705 5.30482 58.7876 5.30482 57.3284C5.30482 55.8692 4.1173 54.6863 2.65241 54.6863C1.18752 54.6863 0 55.8692 0 57.3284C0 58.7876 1.18752 59.9705 2.65241 59.9705Z" fill="#F8ECE3"/>
<path d="M55.9005 59.9705C57.3653 59.9705 58.5529 58.7876 58.5529 57.3284C58.5529 55.8692 57.3653 54.6863 55.9005 54.6863C54.4356 54.6863 53.248 55.8692 53.248 57.3284C53.248 58.7876 54.4356 59.9705 55.9005 59.9705Z" fill="#F8ECE3"/>
<path d="M23.0707 54.6863H17.7158V60.0203H23.0707V54.6863Z" fill="#F8ECE3"/>
<path d="M76.3197 60.0203H70.9648L73.6173 54.6863L76.3197 60.0203Z" fill="#F8ECE3"/>
<path d="M40.8373 60.0203H35.4824V54.6863L40.8373 60.0203Z" fill="#F8ECE3"/>
<path d="M162.297 5.33398C163.762 5.33398 164.949 4.15108 164.949 2.6919C164.949 1.23271 163.762 0.0498047 162.297 0.0498047C160.832 0.0498047 159.645 1.23271 159.645 2.6919C159.645 4.15108 160.832 5.33398 162.297 5.33398Z" fill="#F8ECE3"/>
<path d="M109.1 5.33398C110.565 5.33398 111.752 4.15108 111.752 2.6919C111.752 1.23271 110.565 0.0498047 109.1 0.0498047C107.635 0.0498047 106.447 1.23271 106.447 2.6919C106.447 4.15108 107.635 5.33398 109.1 5.33398Z" fill="#F8ECE3"/>
<path d="M141.88 5.36597L147.235 5.36597V0.0319347L141.88 0.0319347V5.36597Z" fill="#F8ECE3"/>
<path d="M88.6807 0H94.0355L91.3831 5.33402L88.6807 0Z" fill="#F8ECE3"/>
<path d="M124.163 0H129.518V5.33402L124.163 0Z" fill="#F8ECE3"/>
<path d="M91.3829 23.5295C92.8478 23.5295 94.0353 22.3466 94.0353 20.8875C94.0353 19.4283 92.8478 18.2454 91.3829 18.2454C89.918 18.2454 88.7305 19.4283 88.7305 20.8875C88.7305 22.3466 89.918 23.5295 91.3829 23.5295Z" fill="#F8ECE3"/>
<path d="M144.581 23.5295C146.046 23.5295 147.234 22.3466 147.234 20.8875C147.234 19.4283 146.046 18.2454 144.581 18.2454C143.116 18.2454 141.929 19.4283 141.929 20.8875C141.929 22.3466 143.116 23.5295 144.581 23.5295Z" fill="#F8ECE3"/>
<path d="M111.802 18.2454H106.447V23.5794H111.802V18.2454Z" fill="#F8ECE3"/>
<path d="M164.999 23.5794H159.645L162.297 18.2454L164.999 23.5794Z" fill="#F8ECE3"/>
<path d="M129.518 23.5794H124.163V18.2454L129.518 23.5794Z" fill="#F8ECE3"/>
<path d="M162.297 41.7749C163.762 41.7749 164.949 40.592 164.949 39.1328C164.949 37.6736 163.762 36.4907 162.297 36.4907C160.832 36.4907 159.645 37.6736 159.645 39.1328C159.645 40.592 160.832 41.7749 162.297 41.7749Z" fill="#F8ECE3"/>
<path d="M109.1 41.7749C110.565 41.7749 111.752 40.592 111.752 39.1328C111.752 37.6736 110.565 36.4907 109.1 36.4907C107.635 36.4907 106.447 37.6736 106.447 39.1328C106.447 40.592 107.635 41.7749 109.1 41.7749Z" fill="#F8ECE3"/>
<path d="M141.88 41.7988H147.235V36.4648H141.88V41.7988Z" fill="#F8ECE3"/>
<path d="M88.6807 36.4409H94.0355L91.3831 41.7749L88.6807 36.4409Z" fill="#F8ECE3"/>
<path d="M124.163 36.4409H129.518V41.7749L124.163 36.4409Z" fill="#F8ECE3"/>
<path d="M91.3829 59.9705C92.8478 59.9705 94.0353 58.7876 94.0353 57.3284C94.0353 55.8692 92.8478 54.6863 91.3829 54.6863C89.918 54.6863 88.7305 55.8692 88.7305 57.3284C88.7305 58.7876 89.918 59.9705 91.3829 59.9705Z" fill="#F8ECE3"/>
<path d="M144.581 59.9705C146.046 59.9705 147.234 58.7876 147.234 57.3284C147.234 55.8692 146.046 54.6863 144.581 54.6863C143.116 54.6863 141.929 55.8692 141.929 57.3284C141.929 58.7876 143.116 59.9705 144.581 59.9705Z" fill="#F8ECE3"/>
<path d="M111.802 54.6863H106.447V60.0203H111.802V54.6863Z" fill="#F8ECE3"/>
<path d="M164.999 60.0203H159.645L162.297 54.6863L164.999 60.0203Z" fill="#F8ECE3"/>
<path d="M129.518 60.0203H124.163V54.6863L129.518 60.0203Z" fill="#F8ECE3"/>
<path d="M2.65241 75.9226C4.1173 75.9226 5.30482 74.7397 5.30482 73.2805C5.30482 71.8213 4.1173 70.6384 2.65241 70.6384C1.18752 70.6384 0 71.8213 0 73.2805C0 74.7397 1.18752 75.9226 2.65241 75.9226Z" fill="#F8ECE3"/>
<path d="M55.9005 75.9226C57.3653 75.9226 58.5529 74.7397 58.5529 73.2805C58.5529 71.8213 57.3653 70.6384 55.9005 70.6384C54.4356 70.6384 53.248 71.8213 53.248 73.2805C53.248 74.7397 54.4356 75.9226 55.9005 75.9226Z" fill="#F8ECE3"/>
<path d="M23.0707 70.6384H17.7158V75.9725H23.0707V70.6384Z" fill="#F8ECE3"/>
<path d="M76.3197 75.9725H70.9648L73.6173 70.6384L76.3197 75.9725Z" fill="#F8ECE3"/>
<path d="M40.8373 75.9725H35.4824V70.6384L40.8373 75.9725Z" fill="#F8ECE3"/>
<path d="M73.6173 94.168C75.0821 94.168 76.2697 92.9851 76.2697 91.5259C76.2697 90.0667 75.0821 88.8838 73.6173 88.8838C72.1524 88.8838 70.9648 90.0667 70.9648 91.5259C70.9648 92.9851 72.1524 94.168 73.6173 94.168Z" fill="#F8ECE3"/>
<path d="M20.418 94.168C21.8829 94.168 23.0704 92.9851 23.0704 91.5259C23.0704 90.0667 21.8829 88.8838 20.418 88.8838C18.9531 88.8838 17.7656 90.0667 17.7656 91.5259C17.7656 92.9851 18.9531 94.168 20.418 94.168Z" fill="#F8ECE3"/>
<path d="M53.2213 94.1926H58.5762V88.8586H53.2213V94.1926Z" fill="#F8ECE3"/>
<path d="M0 88.834H5.35487L2.65241 94.168L0 88.834Z" fill="#F8ECE3"/>
<path d="M35.4824 88.834H40.8373V94.168L35.4824 88.834Z" fill="#F8ECE3"/>
<path d="M2.65241 112.364C4.1173 112.364 5.30482 111.181 5.30482 109.721C5.30482 108.262 4.1173 107.079 2.65241 107.079C1.18752 107.079 0 108.262 0 109.721C0 111.181 1.18752 112.364 2.65241 112.364Z" fill="#F8ECE3"/>
<path d="M55.9005 112.364C57.3653 112.364 58.5529 111.181 58.5529 109.721C58.5529 108.262 57.3653 107.079 55.9005 107.079C54.4356 107.079 53.248 108.262 53.248 109.721C53.248 111.181 54.4356 112.364 55.9005 112.364Z" fill="#F8ECE3"/>
<path d="M23.0707 107.079H17.7158V112.413H23.0707V107.079Z" fill="#F8ECE3"/>
<path d="M76.3197 112.413H70.9648L73.6173 107.079L76.3197 112.413Z" fill="#F8ECE3"/>
<path d="M40.8373 112.413H35.4824V107.079L40.8373 112.413Z" fill="#F8ECE3"/>
<path d="M73.6173 130.609C75.0821 130.609 76.2697 129.426 76.2697 127.967C76.2697 126.508 75.0821 125.325 73.6173 125.325C72.1524 125.325 70.9648 126.508 70.9648 127.967C70.9648 129.426 72.1524 130.609 73.6173 130.609Z" fill="#F8ECE3"/>
<path d="M20.418 130.609C21.8829 130.609 23.0704 129.426 23.0704 127.967C23.0704 126.508 21.8829 125.325 20.418 125.325C18.9531 125.325 17.7656 126.508 17.7656 127.967C17.7656 129.426 18.9531 130.609 20.418 130.609Z" fill="#F8ECE3"/>
<path d="M53.2213 130.626H58.5762V125.292H53.2213V130.626Z" fill="#F8ECE3"/>
<path d="M0 125.275H5.35487L2.65241 130.609L0 125.275Z" fill="#F8ECE3"/>
<path d="M35.4824 125.275H40.8373V130.609L35.4824 125.275Z" fill="#F8ECE3"/>
<path d="M2.65241 148.804C4.1173 148.804 5.30482 147.622 5.30482 146.162C5.30482 144.703 4.1173 143.52 2.65241 143.52C1.18752 143.52 0 144.703 0 146.162C0 147.622 1.18752 148.804 2.65241 148.804Z" fill="#F8ECE3"/>
<path d="M55.9005 148.804C57.3653 148.804 58.5529 147.622 58.5529 146.162C58.5529 144.703 57.3653 143.52 55.9005 143.52C54.4356 143.52 53.248 144.703 53.248 146.162C53.248 147.622 54.4356 148.804 55.9005 148.804Z" fill="#F8ECE3"/>
<path d="M23.0707 143.52H17.7158V148.854H23.0707V143.52Z" fill="#F8ECE3"/>
<path d="M76.3197 148.804H70.9648L73.6173 143.52L76.3197 148.804Z" fill="#F8ECE3"/>
<path d="M40.8373 148.804H35.4824V143.52L40.8373 148.804Z" fill="#F8ECE3"/>
<path d="M91.3829 75.9226C92.8478 75.9226 94.0353 74.7397 94.0353 73.2805C94.0353 71.8213 92.8478 70.6384 91.3829 70.6384C89.918 70.6384 88.7305 71.8213 88.7305 73.2805C88.7305 74.7397 89.918 75.9226 91.3829 75.9226Z" fill="#F8ECE3"/>
<path d="M144.581 75.9226C146.046 75.9226 147.234 74.7397 147.234 73.2805C147.234 71.8213 146.046 70.6384 144.581 70.6384C143.116 70.6384 141.929 71.8213 141.929 73.2805C141.929 74.7397 143.116 75.9226 144.581 75.9226Z" fill="#F8ECE3"/>
<path d="M111.802 70.6384H106.447V75.9725H111.802V70.6384Z" fill="#F8ECE3"/>
<path d="M164.999 75.9725H159.645L162.297 70.6384L164.999 75.9725Z" fill="#F8ECE3"/>
<path d="M129.518 75.9725H124.163V70.6384L129.518 75.9725Z" fill="#F8ECE3"/>
<path d="M162.297 94.168C163.762 94.168 164.949 92.9851 164.949 91.5259C164.949 90.0667 163.762 88.8838 162.297 88.8838C160.832 88.8838 159.645 90.0667 159.645 91.5259C159.645 92.9851 160.832 94.168 162.297 94.168Z" fill="#F8ECE3"/>
<path d="M109.1 94.168C110.565 94.168 111.752 92.9851 111.752 91.5259C111.752 90.0667 110.565 88.8838 109.1 88.8838C107.635 88.8838 106.447 90.0667 106.447 91.5259C106.447 92.9851 107.635 94.168 109.1 94.168Z" fill="#F8ECE3"/>
<path d="M141.88 94.1926H147.235V88.8586H141.88V94.1926Z" fill="#F8ECE3"/>
<path d="M88.6807 88.834H94.0355L91.3831 94.168L88.6807 88.834Z" fill="#F8ECE3"/>
<path d="M124.163 88.834H129.518V94.168L124.163 88.834Z" fill="#F8ECE3"/>
<path d="M91.3829 112.364C92.8478 112.364 94.0353 111.181 94.0353 109.721C94.0353 108.262 92.8478 107.079 91.3829 107.079C89.918 107.079 88.7305 108.262 88.7305 109.721C88.7305 111.181 89.918 112.364 91.3829 112.364Z" fill="#F8ECE3"/>
<path d="M144.581 112.364C146.046 112.364 147.234 111.181 147.234 109.721C147.234 108.262 146.046 107.079 144.581 107.079C143.116 107.079 141.929 108.262 141.929 109.721C141.929 111.181 143.116 112.364 144.581 112.364Z" fill="#F8ECE3"/>
<path d="M111.802 107.079H106.447V112.413H111.802V107.079Z" fill="#F8ECE3"/>
<path d="M164.999 112.413H159.645L162.297 107.079L164.999 112.413Z" fill="#F8ECE3"/>
<path d="M129.518 112.413H124.163V107.079L129.518 112.413Z" fill="#F8ECE3"/>
<path d="M162.297 130.609C163.762 130.609 164.949 129.426 164.949 127.967C164.949 126.508 163.762 125.325 162.297 125.325C160.832 125.325 159.645 126.508 159.645 127.967C159.645 129.426 160.832 130.609 162.297 130.609Z" fill="#F8ECE3"/>
<path d="M109.1 130.609C110.565 130.609 111.752 129.426 111.752 127.967C111.752 126.508 110.565 125.325 109.1 125.325C107.635 125.325 106.447 126.508 106.447 127.967C106.447 129.426 107.635 130.609 109.1 130.609Z" fill="#F8ECE3"/>
<path d="M141.88 130.626H147.235V125.292H141.88V130.626Z" fill="#F8ECE3"/>
<path d="M88.6807 125.275H94.0355L91.3831 130.609L88.6807 125.275Z" fill="#F8ECE3"/>
<path d="M124.163 125.275H129.518V130.609L124.163 125.275Z" fill="#F8ECE3"/>
<path d="M91.3829 148.804C92.8478 148.804 94.0353 147.622 94.0353 146.162C94.0353 144.703 92.8478 143.52 91.3829 143.52C89.918 143.52 88.7305 144.703 88.7305 146.162C88.7305 147.622 89.918 148.804 91.3829 148.804Z" fill="#F8ECE3"/>
<path d="M144.581 148.804C146.046 148.804 147.234 147.622 147.234 146.162C147.234 144.703 146.046 143.52 144.581 143.52C143.116 143.52 141.929 144.703 141.929 146.162C141.929 147.622 143.116 148.804 144.581 148.804Z" fill="#F8ECE3"/>
<path d="M111.802 143.52H106.447V148.854H111.802V143.52Z" fill="#F8ECE3"/>
<path d="M164.999 148.804H159.645L162.297 143.52L164.999 148.804Z" fill="#F8ECE3"/>
<path d="M129.518 148.804H124.163V143.52L129.518 148.804Z" fill="#F8ECE3"/>
</svg>
