<svg width="50" height="50" viewBox="0 0 50 50" fill="none" xmlns="http://www.w3.org/2000/svg">
<path d="M30.8461 0H19.1539C8.57549 0 0 8.57549 0 19.1539V30.8461C0 41.4245 8.57549 50 19.1539 50H30.8461C41.4245 50 50 41.4245 50 30.8461V19.1539C50 8.57549 41.4245 0 30.8461 0Z" fill="#F9EDE4" fill-opacity="0.5"/>
<path d="M29.8285 16.2498C29.8285 13.5832 27.7249 11.4165 25.1359 11.4165C22.5469 11.4165 20.4434 13.5832 20.4434 16.2498V21.0832H29.8285" stroke="#113A3B" stroke-width="3" stroke-miterlimit="10"/>
<path d="M30.6374 21.083H29.9093C26.5921 21.083 23.8413 23.833 23.8413 27.333V31.4163C23.8413 34.833 26.5112 37.6663 29.9093 37.6663H30.6374C33.9546 37.6663 36.7054 34.9163 36.7054 31.4163V27.333C36.6245 23.833 33.9546 21.083 30.6374 21.083Z" fill="#F5E7E1"/>
<path d="M30.6376 21.083H20.4434C17.1263 21.083 14.3755 23.833 14.3755 27.333V31.4163C14.3755 34.833 17.0454 37.6663 20.4434 37.6663H30.6376C33.9548 37.6663 36.7056 34.9163 36.7056 31.4163V27.333C36.6247 23.833 33.9548 21.083 30.6376 21.083Z" stroke="#FF6938" stroke-width="3" stroke-miterlimit="10"/>
</svg>
