<svg width="50" height="50" viewBox="0 0 50 50" fill="none" xmlns="http://www.w3.org/2000/svg">
<path d="M30.8461 0H19.1539C8.57549 0 0 8.57549 0 19.1539V30.8461C0 41.4245 8.57549 50 19.1539 50H30.8461C41.4245 50 50 41.4245 50 30.8461V19.1539C50 8.57549 41.4245 0 30.8461 0Z" fill="#F9EDE4" fill-opacity="0.5"/>
<path d="M27.2241 14.6159C25.3534 15.7092 23.9655 17.5313 22.5776 19.2927C21.4914 20.6896 20.4052 22.1473 20.2241 23.9087C19.9224 26.5204 21.6724 28.8285 23.3017 30.8935C24.2672 32.1083 26.1379 33.4445 27.4655 34.2948C28.7931 35.1452 29.6983 35.3881 31.1466 34.72C32.3534 34.1734 33.3793 34.72 33.5 31.6224C33.5603 30.2862 31.6293 25.3664 31.6293 24.0302C31.6293 20.143 34.1638 19.7178 33.8621 15.8914C33.6207 12.733 29.1552 13.4619 27.2241 14.6159Z" fill="#F5E7E1"/>
<path d="M25.5947 13.7656H36.9999" stroke="#FF6938" stroke-width="3" stroke-miterlimit="10"/>
<path d="M16 13.7656H20.1638" stroke="#FF6938" stroke-width="3" stroke-miterlimit="10"/>
<path d="M33.5 23.9697H37" stroke="#FF6938" stroke-width="3" stroke-miterlimit="10"/>
<path d="M16 23.9697L23.7369 23.9964" stroke="#FF6938" stroke-width="3" stroke-miterlimit="10"/>
<path d="M27.4653 34.2344H36.9998" stroke="#FF6938" stroke-width="3" stroke-miterlimit="10"/>
<path d="M16 34.2344H21.6121" stroke="#FF6938" stroke-width="3" stroke-miterlimit="10"/>
<path d="M23.4826 16.4986C24.9823 16.4986 26.1981 15.2749 26.1981 13.7654C26.1981 12.2559 24.9823 11.0322 23.4826 11.0322C21.9829 11.0322 20.7671 12.2559 20.7671 13.7654C20.7671 15.2749 21.9829 16.4986 23.4826 16.4986Z" stroke="#113A3B" stroke-width="3" stroke-miterlimit="10"/>
<path d="M30.7844 26.7027C32.2841 26.7027 33.4999 25.479 33.4999 23.9695C33.4999 22.46 32.2841 21.2363 30.7844 21.2363C29.2846 21.2363 28.0688 22.46 28.0688 23.9695C28.0688 25.479 29.2846 26.7027 30.7844 26.7027Z" stroke="#113A3B" stroke-width="3" stroke-miterlimit="10"/>
<path d="M24.3278 36.9674C25.8276 36.9674 27.0433 35.7437 27.0433 34.2342C27.0433 32.7247 25.8276 31.501 24.3278 31.501C22.8281 31.501 21.6123 32.7247 21.6123 34.2342C21.6123 35.7437 22.8281 36.9674 24.3278 36.9674Z" stroke="#113A3B" stroke-width="3" stroke-miterlimit="10"/>
</svg>
