<svg width="50" height="50" viewBox="0 0 50 50" fill="none" xmlns="http://www.w3.org/2000/svg">
<g clip-path="url(#clip0)">
<path d="M30.8461 0H19.1539C8.57549 0 0 8.57549 0 19.1539V30.8461C0 41.4245 8.57549 50 19.1539 50H30.8461C41.4245 50 50 41.4245 50 30.8461V19.1539C50 8.57549 41.4245 0 30.8461 0Z" fill="#F9EDE4" fill-opacity="0.5"/>
<path d="M19.7331 14.3544C16.822 15.0165 14.3476 16.8558 12.8921 19.5043C11.6549 21.9321 11.3638 24.8013 12.0188 27.4498C12.1644 28.3326 12.5282 29.2154 12.9649 29.9511C13.911 31.2018 15.2937 32.0111 16.822 32.1582C18.2776 32.3789 19.8059 32.0111 20.9703 31.0547C23.5902 28.6269 21.5525 23.9184 24.6091 21.8585C26.6468 20.5342 32.2506 19.9457 29.849 16.5615C28.1751 14.0601 22.353 13.7659 19.7331 14.3544Z" fill="#F5E7E1"/>
<path d="M29.485 27.9648C30.7222 25.1692 29.5578 21.8586 26.7923 20.6079C24.0268 19.3572 20.7518 20.5343 19.5146 23.33C18.2774 26.1256 19.4418 29.4362 22.2073 30.6869C23.8084 31.4226 25.7006 31.349 27.2289 30.4662" stroke="#113A3B" stroke-width="3" stroke-miterlimit="10"/>
<path d="M12.2373 25.6102C12.2373 18.7682 17.6955 13.2505 24.4637 13.2505C31.2319 13.2505 36.6901 18.7682 36.6901 25.6102" stroke="#FF6938" stroke-width="3" stroke-miterlimit="10"/>
<path d="M19.0053 38.9999C19.8092 38.9999 20.4609 38.3411 20.4609 37.5285C20.4609 36.7159 19.8092 36.0571 19.0053 36.0571C18.2015 36.0571 17.5498 36.7159 17.5498 37.5285C17.5498 38.3411 18.2015 38.9999 19.0053 38.9999Z" fill="#FF6938"/>
<path d="M24.4638 38.9999C25.2677 38.9999 25.9194 38.3411 25.9194 37.5285C25.9194 36.7159 25.2677 36.0571 24.4638 36.0571C23.66 36.0571 23.0083 36.7159 23.0083 37.5285C23.0083 38.3411 23.66 38.9999 24.4638 38.9999Z" fill="#FF6938"/>
<path d="M29.9946 38.9999C30.7985 38.9999 31.4501 38.3411 31.4501 37.5285C31.4501 36.7159 30.7985 36.0571 29.9946 36.0571C29.1907 36.0571 28.5391 36.7159 28.5391 37.5285C28.5391 38.3411 29.1907 38.9999 29.9946 38.9999Z" fill="#FF6938"/>
</g>
<defs>
<clipPath id="clip0">
<rect width="50" height="50" fill="white"/>
</clipPath>
</defs>
</svg>
