<svg width="50" height="50" viewBox="0 0 50 50" fill="none" xmlns="http://www.w3.org/2000/svg">
<path d="M30.8461 0H19.1539C8.57549 0 0 8.57549 0 19.1539V30.8461C0 41.4245 8.57549 50 19.1539 50H30.8461C41.4245 50 50 41.4245 50 30.8461V19.1539C50 8.57549 41.4245 0 30.8461 0Z" fill="#F9EDE4" fill-opacity="0.5"/>
<path d="M19.3954 12.2825C17.7252 12.6459 16.1512 13.3599 14.7775 14.3771C13.4038 15.3942 12.2618 16.6915 11.4269 18.183C10.0033 21.0337 9.63034 24.2951 10.3738 27.3935C10.5445 28.4163 10.9306 29.3911 11.5066 30.2533C12.6166 31.679 14.2438 32.6095 16.0354 32.843C16.8859 32.9829 17.7564 32.9402 18.5891 32.7178C19.4218 32.4953 20.1977 32.0982 20.8651 31.5527C23.9065 28.773 21.5509 23.2915 25.1247 20.9614C27.492 19.418 34.0027 18.7716 31.2443 14.8275C29.2055 11.9123 22.4147 11.581 19.3954 12.2825Z" fill="#F5E7E1"/>
<path d="M30.4543 27.8111C31.0525 26.5 31.1623 25.0183 30.7639 23.6333C30.3656 22.2484 29.4853 21.0514 28.2819 20.2585C27.0786 19.4656 25.6314 19.1289 24.2016 19.3092C22.7719 19.4896 21.4536 20.175 20.4849 21.2419C19.5161 22.3088 18.9606 23.6869 18.9186 25.1274C18.8766 26.5679 19.3509 27.9759 20.2559 29.0974C21.1609 30.2189 22.437 30.98 23.8538 31.2433C25.2707 31.5066 26.735 31.2548 27.9825 30.5333" stroke="#113A3B" stroke-width="3" stroke-miterlimit="10"/>
<path d="M24.9574 39.6063C32.8568 39.6063 39.2606 33.2025 39.2606 25.3031C39.2606 17.4037 32.8568 11 24.9574 11C17.058 11 10.6543 17.4037 10.6543 25.3031C10.6543 33.2025 17.058 39.6063 24.9574 39.6063Z" stroke="#FF6938" stroke-width="3" stroke-miterlimit="10"/>
</svg>
