<svg width="50" height="50" viewBox="0 0 50 50" fill="none" xmlns="http://www.w3.org/2000/svg">
<path d="M30.8461 0H19.1539C8.57549 0 0 8.57549 0 19.1539V30.8461C0 41.4245 8.57549 50 19.1539 50H30.8461C41.4245 50 50 41.4245 50 30.8461V19.1539C50 8.57549 41.4245 0 30.8461 0Z" fill="#F9EDE4" fill-opacity="0.5"/>
<g clip-path="url(#clip0)">
<path d="M38.107 23.5302C38.3098 22.2617 38.445 20.8596 37.9042 19.6578C37.0254 17.6548 34.1863 16.7201 32.2935 17.8551C31.2119 18.456 30.5359 19.5242 29.8599 20.5925C27.156 24.732 24.452 28.8715 21.6804 33.0778C21.1396 33.9457 20.5312 34.8805 20.5312 35.882C20.5312 37.0838 21.3424 38.152 22.3564 38.8197C24.452 40.155 25.6688 39.8212 27.6292 38.6861C29.4543 37.6179 31.0767 36.2826 32.4963 34.7469C35.403 31.5422 37.431 27.6697 38.107 23.5302Z" fill="#F5E7E1"/>
<path d="M14.7182 29.2718C16.611 33.2778 19.9233 37.4173 25.534 40.4218C39.4594 31.4751 38.8511 15.4512 38.8511 15.4512C38.8511 15.4512 31.8884 15.3177 25.7368 10.644C19.8557 14.7835 12.2846 15.4512 12.2846 15.4512C12.2846 15.4512 11.6086 20.7257 13.7042 26.8015" stroke="#FF6938" stroke-width="3" stroke-miterlimit="10"/>
<path d="M20.6665 24.303L24.0658 27.6969L30.3332 21.5454" stroke="#113A3B" stroke-width="3" stroke-miterlimit="10"/>
</g>
<defs>
<clipPath id="clip0">
<rect width="29" height="32.5152" fill="white" transform="translate(11 9.24219)"/>
</clipPath>
</defs>
</svg>
