<svg width="50" height="50" viewBox="0 0 50 50" fill="none" xmlns="http://www.w3.org/2000/svg">
<path d="M30.8461 0H19.1539C8.57549 0 0 8.57549 0 19.1539V30.8461C0 41.4245 8.57549 50 19.1539 50H30.8461C41.4245 50 50 41.4245 50 30.8461V19.1539C50 8.57549 41.4245 0 30.8461 0Z" fill="#F9EDE4" fill-opacity="0.5"/>
<path d="M35.342 31.6277C35.342 32.8327 35.4083 34.1716 34.8113 35.2427C33.9491 36.7825 32.1583 37.4519 30.5664 37.9875C29.5715 38.3222 28.245 38.5231 27.6481 37.6528C27.3164 37.0503 27.5154 36.3139 27.7144 35.6444C28.7756 32.2971 29.8369 28.8829 30.8981 25.5356C31.6277 23.1256 32.4236 20.7825 33.1532 18.3724C33.2858 17.9038 33.4848 17.3683 33.8164 16.9666C35.0766 15.4938 35.0766 17.5021 35.0766 18.3724C35.143 19.9122 35.143 21.385 35.2093 22.9247C35.2093 25.8034 35.2756 28.749 35.342 31.6277Z" fill="#F5E7E1"/>
<path d="M35.8724 23.8621V35.6445L27.1836 39.2596V10.6738L35.8724 14.2889V19.3098" stroke="#FF6938" stroke-width="3" stroke-miterlimit="10"/>
<path d="M20.2856 18.5062V12.9497H27.1836V35.912H20.2856V31.2928" stroke="#FF6938" stroke-width="3" stroke-miterlimit="10"/>
<path d="M11 25H22.4745" stroke="#113A3B" stroke-width="3" stroke-miterlimit="10"/>
<path d="M19.6226 21.3848L22.7399 24.9998L19.6226 28.5479" stroke="#113A3B" stroke-width="3" stroke-miterlimit="10"/>
</svg>
