<svg width="50" height="51" viewBox="0 0 50 51" fill="none" xmlns="http://www.w3.org/2000/svg">
<g clip-path="url(#clip0)">
<path d="M30.8461 0.5H19.1539C8.57549 0.5 0 9.07549 0 19.6539V31.3461C0 41.9245 8.57549 50.5 19.1539 50.5H30.8461C41.4245 50.5 50 41.9245 50 31.3461V19.6539C50 9.07549 41.4245 0.5 30.8461 0.5Z" fill="#F9EDE4" fill-opacity="0.5"/>
<g clip-path="url(#clip1)">
<path d="M36.0999 34.3517C36.0999 35.2978 35.9499 36.3895 35.1249 36.9717C34.5249 37.3356 33.7749 37.4083 33.0999 37.3356C26.8749 37.19 20.6499 37.1172 14.4249 36.9717C13.8999 36.9717 13.3749 36.9717 12.9249 36.7534C12.4749 36.535 12.0249 36.2439 11.8749 35.7345C11.6499 34.7884 12.6249 34.0606 13.5249 33.6968C15.1749 33.1145 17.0499 32.969 18.6249 32.1684C19.8249 31.5135 20.7999 30.4946 21.8499 29.5485C24.3999 27.3652 27.8499 26.128 31.2999 26.2008C32.7999 26.2008 35.4249 26.5647 36.1749 28.093C36.5499 28.8207 36.2499 29.8396 36.2499 30.6401C36.1749 31.8773 36.1749 33.1145 36.0999 34.3517Z" fill="#F5E7E1"/>
<path d="M16.15 24.9636L22.45 31.0768L29.05 24.6725L38.95 15.066" stroke="#113A3B" stroke-width="3" stroke-miterlimit="10"/>
<path d="M36.4 25.0363V37.1172H11.425V12.8827H32.35" stroke="#FF6938" stroke-width="3" stroke-miterlimit="10"/>
</g>
</g>
<defs>
<clipPath id="clip0">
<rect width="50" height="50" fill="white" transform="translate(0 0.5)"/>
</clipPath>
<clipPath id="clip1">
<rect width="30" height="27" fill="white" transform="translate(10 11.5)"/>
</clipPath>
</defs>
</svg>
