<svg width="50" height="50" viewBox="0 0 50 50" fill="none" xmlns="http://www.w3.org/2000/svg">
<path d="M30.8461 0H19.1539C8.57549 0 0 8.57549 0 19.1539V30.8461C0 41.4245 8.57549 50 19.1539 50H30.8461C41.4245 50 50 41.4245 50 30.8461V19.1539C50 8.57549 41.4245 0 30.8461 0Z" fill="#F9EDE4" fill-opacity="0.5"/>
<g clip-path="url(#clip0)">
<path d="M20.0631 11.9792C18.3929 12.3426 16.8189 13.0565 15.4452 14.0737C14.0715 15.0909 12.9295 16.3882 12.0946 17.8797C10.671 20.7304 10.2981 23.9917 11.0415 27.0902C11.2122 28.1129 11.5983 29.0878 12.1744 29.95C13.2843 31.3756 14.9115 32.3061 16.7031 32.5397C17.5536 32.6796 18.4241 32.6369 19.2569 32.4144C20.0896 32.192 20.8654 31.7948 21.5328 31.2494C24.5742 28.4697 22.2186 22.9882 25.7925 20.6581C28.1597 19.1147 34.6704 18.4682 31.912 14.5241C29.8732 11.609 23.0824 11.2777 20.0631 11.9792Z" fill="#F5E7E1"/>
<path d="M31.1217 27.5078C31.7198 26.1967 31.8297 24.7149 31.4313 23.33C31.0329 21.945 30.1526 20.7481 28.9493 19.9551C27.7459 19.1622 26.2988 18.8255 24.869 19.0059C23.4392 19.1862 22.121 19.8717 21.1522 20.9386C20.1834 22.0055 19.6279 23.3835 19.5859 24.824C19.544 26.2645 20.0183 27.6726 20.9233 28.7941C21.8282 29.9156 23.1043 30.6767 24.5212 30.94C25.938 31.2033 27.4023 30.9515 28.6498 30.23" stroke="#113A3B" stroke-width="3" stroke-miterlimit="10"/>
<path d="M25.625 39.3032C33.5244 39.3032 39.9282 32.8994 39.9282 25C39.9282 17.1006 33.5244 10.6969 25.625 10.6969C17.7256 10.6969 11.3219 17.1006 11.3219 25C11.3219 32.8994 17.7256 39.3032 25.625 39.3032Z" stroke="#FF6938" stroke-width="3" stroke-miterlimit="10"/>
<path d="M25.625 14.5187V6.875" stroke="#FF6938" stroke-width="3" stroke-miterlimit="10"/>
<path d="M25.625 43.1251V35.4813" stroke="#FF6938" stroke-width="3" stroke-miterlimit="10"/>
<path d="M36.1063 25H43.7501" stroke="#FF6938" stroke-width="3" stroke-miterlimit="10"/>
<path d="M7.5 25H15.1437" stroke="#FF6938" stroke-width="3" stroke-miterlimit="10"/>
</g>
<defs>
<clipPath id="clip0">
<rect width="36.25" height="36.25" fill="white" transform="translate(7.5 6.875)"/>
</clipPath>
</defs>
</svg>
