<svg width="16" height="16" viewBox="0 0 16 16" fill="none" xmlns="http://www.w3.org/2000/svg">
<path fill-rule="evenodd" clip-rule="evenodd" d="M13.1345 13.6336H10.762V9.91984C10.762 9.03451 10.746 7.89584 9.52811 7.89584C8.29427 7.89584 8.10581 8.86117 8.10581 9.85673V13.6336H5.73501V5.99806H8.00892V7.04162H8.04181C8.35916 6.44162 9.13254 5.80873 10.2873 5.80873C12.691 5.80873 13.1345 7.38917 13.1345 9.44606V13.6336ZM3.05931 4.95547C2.2966 4.95547 1.68146 4.33859 1.68146 3.57859C1.68146 2.81947 2.2966 2.20259 3.05931 2.20259C3.81757 2.20259 4.4345 2.81947 4.4345 3.57859C4.4345 4.33859 3.81757 4.95547 3.05931 4.95547ZM1.86992 13.6339H4.24605V5.99838H1.86992V13.6339ZM14.3159 0H0.679621C0.0289182 0 -0.5 0.516445 -0.5 1.15378V14.8453C-0.5 15.4827 0.0289182 16 0.679621 16H14.3159C14.9684 16 15.5 15.4827 15.5 14.8453V1.15378C15.5 0.516445 14.9684 0 14.3159 0Z" fill="#D3D3D3"/>
</svg>
