<svg width="50" height="51" viewBox="0 0 50 51" fill="none" xmlns="http://www.w3.org/2000/svg">
<g clip-path="url(#clip0)">
<path d="M30.8461 0.5H19.1539C8.57549 0.5 0 9.07549 0 19.6539V31.3461C0 41.9245 8.57549 50.5 19.1539 50.5H30.8461C41.4245 50.5 50 41.9245 50 31.3461V19.6539C50 9.07549 41.4245 0.5 30.8461 0.5Z" fill="#F9EDE4" fill-opacity="0.5"/>
<path d="M30 15.9491C30 14.5039 29.4732 13.1179 28.5355 12.096C27.5979 11.0741 26.3261 10.5 25 10.5V10.5C23.6739 10.5 22.4022 11.0741 21.4645 12.096C20.5268 13.1179 20 14.5039 20 15.9491V20.5" stroke="#145156" stroke-width="3" stroke-miterlimit="10"/>
<path d="M30.3776 20.5H29.6224C25.9649 20.5 23 23.5389 23 27.2876V31.7124C23 35.4611 25.9649 38.5 29.6224 38.5H30.3776C34.0351 38.5 37 35.4611 37 31.7124V27.2876C37 23.5389 34.0351 20.5 30.3776 20.5Z" fill="#F5E7E1"/>
<path d="M30.4919 20.5H19.5082C15.9138 20.5 13 23.5389 13 27.2876V31.7124C13 35.4611 15.9138 38.5 19.5082 38.5H30.4919C34.0862 38.5 37 35.4611 37 31.7124V27.2876C37 23.5389 34.0862 20.5 30.4919 20.5Z" stroke="#FF6938" stroke-width="3" stroke-miterlimit="10"/>
</g>
<defs>
<clipPath id="clip0">
<rect width="50" height="50" fill="white" transform="translate(0 0.5)"/>
</clipPath>
</defs>
</svg>
