<svg width="106" height="106" viewBox="0 0 106 106" fill="none" xmlns="http://www.w3.org/2000/svg">
<path d="M53 4C64.0794 4 74.8318 7.75483 83.5027 14.6518C92.1737 21.5488 98.2513 31.1808 100.744 41.9762C103.236 52.7716 101.997 64.0931 97.2275 74.0934C92.458 84.0937 84.4402 92.1825 74.4824 97.0398C64.5245 101.897 53.2144 103.237 42.3974 100.839C31.5805 98.4418 21.8953 92.4493 14.9221 83.8395C7.94899 75.2297 4.09955 64.5108 4.0019 53.4318C3.90426 42.3529 7.56418 31.5678 14.3845 22.8364" stroke="#FF6938" stroke-width="8"/>
<path d="M14.3845 22.8364C18.9673 16.9695 24.8266 12.224 31.5176 8.96016C38.2086 5.69632 45.5554 4 53 4" stroke="#F4D4BC" stroke-width="8"/>
</svg>
