<svg width="50" height="50" viewBox="0 0 50 50" fill="none" xmlns="http://www.w3.org/2000/svg">
<path d="M30.8461 0H19.1539C8.57549 0 0 8.57549 0 19.1539V30.8461C0 41.4245 8.57549 50 19.1539 50H30.8461C41.4245 50 50 41.4245 50 30.8461V19.1539C50 8.57549 41.4245 0 30.8461 0Z" fill="#F9EDE4" fill-opacity="0.5"/>
<path d="M30 15.4491C30 14.0039 29.4732 12.6179 28.5355 11.596C27.5979 10.5741 26.3261 10 25 10V10C23.6739 10 22.4022 10.5741 21.4645 11.596C20.5268 12.6179 20 14.0039 20 15.4491V20" stroke="#145156" stroke-width="3" stroke-miterlimit="10"/>
<path d="M30.3776 20H29.6224C25.9649 20 23 23.0389 23 26.7876V31.2124C23 34.9611 25.9649 38 29.6224 38H30.3776C34.0351 38 37 34.9611 37 31.2124V26.7876C37 23.0389 34.0351 20 30.3776 20Z" fill="#F5E7E1"/>
<path d="M30.4919 20H19.5082C15.9138 20 13 23.0389 13 26.7876V31.2124C13 34.9611 15.9138 38 19.5082 38H30.4919C34.0862 38 37 34.9611 37 31.2124V26.7876C37 23.0389 34.0862 20 30.4919 20Z" stroke="#FF6938" stroke-width="3" stroke-miterlimit="10"/>
</svg>
