<svg width="50" height="50" viewBox="0 0 50 50" fill="none" xmlns="http://www.w3.org/2000/svg">
<path d="M30.8461 0H19.1539C8.57549 0 0 8.57549 0 19.1539V30.8461C0 41.4245 8.57549 50 19.1539 50H30.8461C41.4245 50 50 41.4245 50 30.8461V19.1539C50 8.57549 41.4245 0 30.8461 0Z" fill="#F9EDE4" fill-opacity="0.5"/>
<path d="M36.8305 33.2357C37.8927 33.2357 39.1674 33.2357 39.9464 32.5161C40.7254 31.7965 40.867 30.6452 40.867 29.6377C41.0086 27.1191 41.0794 24.6005 41.2211 22.0099C41.2919 20.2829 41.3627 18.5558 41.0086 16.9008C40.5837 15.2457 39.6631 13.5906 38.1052 12.7271C35.6975 11.4318 32.5816 12.2233 30.4571 13.8784C28.3326 15.6055 27.058 17.9802 25.7833 20.2829C24.5086 22.5856 23.0923 24.9603 20.8262 26.5434C19.2683 27.6228 17.1438 28.4864 17.073 30.2854C16.7897 34.1712 22.5966 33.0918 24.9335 33.0199C28.8284 32.9479 32.8648 33.1638 36.8305 33.2357Z" fill="#F5E7E1"/>
<path d="M20.1178 12.2233H37.2551C39.238 12.2233 40.7959 13.8065 40.7959 15.8213V29.4938C40.7959 31.5087 39.238 33.0918 37.2551 33.0918H13.7444C11.7616 33.0918 10.2036 31.5087 10.2036 29.4938V15.8213C10.2036 13.8065 11.7616 12.2233 13.7444 12.2233H16.5062" stroke="#FF6938" stroke-width="3" stroke-miterlimit="10"/>
<path d="M17.1436 38.7767H33.7144" stroke="#FF6938" stroke-width="3" stroke-miterlimit="10"/>
<path d="M21.8882 38.0571V33.0918" stroke="#FF6938" stroke-width="3" stroke-miterlimit="10"/>
<path d="M29.3242 38.0571V33.0918" stroke="#FF6938" stroke-width="3" stroke-miterlimit="10"/>
<path d="M17.0024 25.9678H21.9595L25.9252 18.5558L27.908 23.2333H33.8565" stroke="#113A3B" stroke-width="3" stroke-miterlimit="10"/>
</svg>
