<svg width="50" height="50" viewBox="0 0 50 50" fill="none" xmlns="http://www.w3.org/2000/svg">
<path d="M30.8461 0H19.1539C8.57549 0 0 8.57549 0 19.1539V30.8461C0 41.4245 8.57549 50 19.1539 50H30.8461C41.4245 50 50 41.4245 50 30.8461V19.1539C50 8.57549 41.4245 0 30.8461 0Z" fill="#F9EDE4" fill-opacity="0.5"/>
<path d="M38.9719 19.7037C39.1892 18.2963 39.3341 16.7408 38.7546 15.4074C37.813 13.1852 34.771 12.1482 32.7429 13.4074C31.5841 14.0741 30.8598 15.2593 30.1355 16.4445C27.2383 21.037 24.3411 25.6296 21.3714 30.2963C20.792 31.2593 20.1401 32.2963 20.1401 33.4074C20.1401 34.7408 21.0093 35.9259 22.0957 36.6667C24.3411 38.1482 25.6448 37.7778 27.7453 36.5185C29.7009 35.3333 31.4392 33.8519 32.9602 32.1482C36.0023 28.5926 38.1752 24.2963 38.9719 19.7037Z" fill="#F5E7E1"/>
<path d="M18.0399 31.3334C18.6917 32.1482 19.3436 32.8889 20.1403 33.7037C21.6614 35.3334 23.3997 36.8889 25.5001 38.4445C39.6964 28.2222 39.7688 15.2593 39.7688 15.2593C39.7688 15.2593 35.0609 11.2593 25.7174 11.2593C16.374 11.2593 11.2314 15.2593 11.2314 15.2593C11.2314 15.2593 11.2314 21.5556 16.3015 28.963" stroke="#FF6938" stroke-width="3.4" stroke-miterlimit="10"/>
<path d="M20.1401 22.8148L23.7616 26.5185L30.2803 19.7778" stroke="#113A3B" stroke-width="3.4" stroke-miterlimit="10"/>
</svg>
