<svg width="50" height="50" viewBox="0 0 50 50" fill="none" xmlns="http://www.w3.org/2000/svg">
<path d="M30.2395 50H19.7605C8.83233 50 0 41.1677 0 30.2395V19.7605C0 8.83233 8.83233 0 19.7605 0H30.2395C41.1677 0 50 8.83233 50 19.7605V30.2395C50 41.1677 41.1677 50 30.2395 50Z" fill="#F9EDE4" fill-opacity="0.5"/>
<path d="M34.5205 14.9306C31.665 13.2529 28.0065 13.7189 26.2218 17.354C24.7941 20.1501 24.7941 24.0648 25.3295 27.5134C25.8649 30.8688 26.9357 34.5038 29.1665 35.6223C30.505 36.3679 32.1112 35.9019 33.4497 35.1563C36.5729 33.4786 39.1606 29.9367 40.5884 25.6493C41.5699 22.6667 40.6776 21.8278 39.1606 19.6841C37.8221 17.82 36.3052 16.0491 34.5205 14.9306Z" fill="#F5E7E1"/>
<path d="M30.4776 26.7968C31.823 24.0637 30.4776 20.8017 27.4986 19.4792C24.5195 18.245 20.9639 19.4792 19.5224 22.2123C18.177 24.9453 19.5224 28.2074 22.5014 29.5298C24.2312 30.2351 26.3454 30.1469 27.9791 29.2653" stroke="#113A3B" stroke-width="3" stroke-miterlimit="10"/>
<path d="M25 14C34.3854 14 42 25 42 25C42 25 34.3854 36 25 36C15.6146 36 8 25 8 25C8 25 15.6146 14 25 14Z" stroke="#FF6938" stroke-width="3" stroke-miterlimit="10"/>
</svg>
