<svg width="50" height="50" viewBox="0 0 50 50" fill="none" xmlns="http://www.w3.org/2000/svg">
<path d="M30.8461 0H19.1539C8.57549 0 0 8.57549 0 19.1539V30.8461C0 41.4245 8.57549 50 19.1539 50H30.8461C41.4245 50 50 41.4245 50 30.8461V19.1539C50 8.57549 41.4245 0 30.8461 0Z" fill="#F9EDE4" fill-opacity="0.5"/>
<path d="M21.8652 12.0795C20.0175 13.9272 19.6753 16.8698 20.4281 19.4018C21.1808 21.9338 22.7548 24.0552 24.4656 26.0397C26.108 27.9559 27.8872 29.8035 29.7349 31.5828C30.8983 32.6777 32.1985 33.7042 33.7724 33.7726C36.236 33.9095 38.0837 31.5828 38.9049 29.2561C40.0682 25.6976 39.7261 21.66 37.8784 18.3753C36.1676 15.3642 33.4303 13.1744 30.1455 12.011C27.3398 11.053 24.4656 9.47903 21.8652 12.0795Z" fill="#F5E7E1"/>
<path d="M31.4456 11.9426C29.3927 10.7792 26.9975 10.1633 24.5339 10.1633C16.5958 10.1633 10.1631 16.596 10.1631 24.5342C10.1631 32.4724 16.5958 38.9051 24.5339 38.9051C32.4721 38.9051 38.9048 32.4724 38.9048 24.5342C38.9048 20.4967 37.194 16.8013 34.5251 14.2009" stroke="#FF6938" stroke-width="3" stroke-miterlimit="10"/>
<path d="M31.4458 24.5342H17.2803" stroke="#113A3B" stroke-width="3" stroke-miterlimit="10"/>
<path d="M24.3975 27.6821V31.5828" stroke="#113A3B" stroke-width="3" stroke-miterlimit="10"/>
<path d="M24.3975 17.4857V24.2605" stroke="#113A3B" stroke-width="3" stroke-miterlimit="10"/>
</svg>
