<svg width="50" height="50" viewBox="0 0 50 50" fill="none" xmlns="http://www.w3.org/2000/svg">
<path d="M30.2395 50H19.7605C8.83233 50 0 41.1677 0 30.2395V19.7605C0 8.83233 8.83233 0 19.7605 0H30.2395C41.1677 0 50 8.83233 50 19.7605V30.2395C50 41.1677 41.1677 50 30.2395 50Z" fill="#F9EDE4" fill-opacity="0.5"/>
<path d="M29.203 36.9352C31.903 36.8574 34.9887 36.6242 36.763 34.5248C38.3058 32.7365 38.383 30.0929 38.3058 27.7603C38.3058 25.3499 38.1515 22.6285 36.4544 20.9179C34.9887 19.4406 32.6744 19.1296 30.5915 19.2851C27.5058 19.5961 24.5744 20.7624 22.183 22.7063C20.023 24.4946 14.0058 28.771 12.3858 32.3477C10.4572 36.4687 15.4715 37.324 17.5544 37.2462C21.4887 37.1685 25.3458 37.0907 29.203 36.9352Z" fill="#F5E7E1"/>
<path d="M21.1801 37.2462H13.543" stroke="#FF6938" stroke-width="3" stroke-miterlimit="10"/>
<path d="M21.1801 12.7538H18.2487C15.703 12.7538 13.6201 14.8531 13.6201 17.419V20.3737C13.6201 22.9395 15.703 25.0389 18.2487 25.0389H27.3515H32.983C35.5287 25.0389 37.6115 27.1382 37.6115 29.7041V32.5032C37.6115 35.0691 35.5287 37.1685 32.983 37.1685H29.9744" stroke="#FF6938" stroke-width="3" stroke-miterlimit="10"/>
<path d="M37.6884 12.7538H29.9741" stroke="#FF6938" stroke-width="3" stroke-miterlimit="10"/>
<path d="M28.9716 15.6307C29.5888 14.8531 30.0516 13.8423 30.0516 12.7538C30.0516 10.3434 28.123 8.32181 25.6545 8.32181C23.1859 8.32181 21.2573 10.2657 21.2573 12.7538C21.2573 15.2419 23.1859 17.1857 25.6545 17.1857" stroke="#113A3B" stroke-width="3" stroke-miterlimit="10"/>
<path d="M25.5773 41.6782C28.0058 41.6782 29.9745 39.6939 29.9745 37.2462C29.9745 34.7985 28.0058 32.8142 25.5773 32.8142C23.1488 32.8142 21.1802 34.7985 21.1802 37.2462C21.1802 39.6939 23.1488 41.6782 25.5773 41.6782Z" stroke="#113A3B" stroke-width="3" stroke-miterlimit="10"/>
</svg>
