<svg width="165" height="47" viewBox="0 0 165 47" fill="none" xmlns="http://www.w3.org/2000/svg">
<g clip-path="url(#clip0)">
<path d="M10.4591 24.3597C10.1739 24.3597 9.7461 24.3597 9.46089 24.3597C7.03654 24.7896 5.46784 26.939 5.89567 29.375C6.18089 31.6677 8.60523 33.6738 10.887 33.8171C11.1722 33.8171 11.3148 33.8171 11.6 33.8171C14.0244 33.3872 14.7374 30.8079 14.3096 28.2286C13.7391 25.5061 11.7426 24.503 10.4591 24.3597ZM12.8835 31.2378C12.5983 31.5244 12.3131 31.6677 11.8852 31.6677C11.1722 31.6677 10.6018 31.0945 10.7444 30.378C10.7444 29.9482 10.887 29.5183 11.0296 29.0884C11.3148 28.5152 11.0296 27.9421 10.6018 27.6555C10.3165 27.5122 9.88871 27.3689 9.6035 27.5122C9.31828 27.5122 9.03306 27.7988 8.74784 28.0854C8.60523 28.2286 8.46263 28.5152 8.46263 28.8018V28.9451C8.32002 29.2317 8.17741 29.375 8.0348 29.2317C7.89219 29.2317 7.89219 29.0884 7.89219 29.0884C7.74958 28.3719 8.0348 27.5122 8.60523 26.939C9.03306 26.5091 9.7461 26.2225 10.4591 26.3658C11.1722 26.5091 11.7426 26.939 12.1705 27.5122C12.4557 28.2286 12.4557 29.2317 12.0278 29.9482C12.0278 29.9482 12.0278 30.0914 11.8852 30.0914C11.7426 30.378 11.7426 30.6646 11.8852 30.9512C12.0278 31.0945 12.1705 31.2378 12.4557 31.2378C12.5983 31.2378 12.5983 31.2378 12.7409 31.2378C12.8835 31.2378 13.0261 31.2378 13.0261 31.2378C12.8835 30.9512 12.8835 31.0945 12.8835 31.2378Z" fill="white"/>
<path d="M42.2609 35.9665C42.8314 34.6768 43.1166 33.2439 43.1166 31.811C43.1166 30.0915 42.1183 29.375 41.5479 29.375C41.5479 29.375 41.4053 28.8018 41.2627 28.372C41.1201 28.0854 41.1201 27.7988 40.9775 27.3689C41.5479 26.6524 41.6905 25.7927 41.5479 24.9329C41.4053 24.2165 41.1201 23.6433 40.6922 23.2134C39.8366 22.497 38.6957 21.9238 37.5549 21.6372C37.4122 21.6372 36.8418 21.4939 36.6992 21.3506C36.6992 21.3506 36.6992 19.4878 36.5566 18.628C36.5566 17.7683 36.414 17.0518 36.1288 16.1921C35.8436 15.0457 35.2731 14.0427 34.4175 13.1829C36.414 11.0335 37.6975 8.74085 37.6975 6.73476C37.6975 2.86585 32.9914 1.71951 27.1444 4.15549L25.8609 4.72866L23.5792 2.57927C17.0192 -3.15244 -3.65906 19.7744 2.90094 25.3628L4.32703 26.6524C3.8992 27.6555 3.75659 28.8018 3.8992 29.9482C4.04181 31.5244 4.89746 33.1006 6.18094 34.1037C7.32181 35.25 8.89051 35.8232 10.6018 35.8232C13.1688 41.6982 19.0157 45.4238 25.8609 45.5671C33.4192 45.7104 39.694 42.2713 42.2609 35.9665ZM43.687 28.9451C44.2575 29.8049 44.6853 30.8079 44.5427 31.811C44.5427 33.3872 44.1149 34.9634 43.5444 36.5396C42.2609 39.8354 39.8366 42.4146 36.8418 44.2774C33.7044 46.1402 30.1392 47 26.574 47C26.2888 47 26.1462 47 25.8609 47C22.2957 46.8567 18.8731 45.8537 15.8783 43.9909C13.1688 42.2713 11.0296 39.9787 9.60355 37.1128C8.03485 36.8262 6.46616 36.1098 5.18268 34.9634C3.61398 33.6738 2.61572 31.811 2.47311 29.8049C2.33051 28.8018 2.47311 27.7988 2.61572 26.939L1.90268 26.3659C1.04703 25.5061 0.333984 24.2165 0.333984 22.6402C0.333984 21.2073 0.476593 19.6311 1.04703 18.3415C2.47311 14.6159 5.61051 10.0305 9.46094 6.30488C11.3149 4.58537 13.1688 3.15244 15.3079 1.8628C17.0192 0.716463 19.0157 0.143293 21.1549 0C22.4383 0 23.7218 0.429878 24.8627 1.28963C24.8627 1.28963 25.7183 2.14939 26.4314 2.86585C26.574 2.86585 26.7166 2.72256 26.7166 2.72256C28.7131 1.8628 30.7096 1.43293 32.8488 1.28963C36.8418 1.28963 39.2662 3.43902 39.2662 6.73476C39.2662 8.74085 38.2679 11.0335 36.414 13.1829C36.8418 13.8994 37.2696 14.7591 37.5549 15.6189C37.8401 16.4787 37.9827 17.4817 37.9827 18.3415C37.9827 18.7713 37.9827 19.3445 37.9827 19.9177C39.2662 20.2043 40.5496 20.9207 41.5479 21.7805C42.2609 22.497 42.6888 23.3567 42.8314 24.3598C42.974 25.3628 42.8314 26.3659 42.4036 27.2256C42.4036 27.3689 42.5462 27.5122 42.5462 27.5122C42.5462 27.6555 42.5462 27.7988 42.6888 27.7988C43.1166 28.372 43.4018 28.6585 43.687 28.9451Z" fill="white"/>
<path d="M39.1236 27.0824C39.694 26.6525 39.8366 25.936 39.8366 25.2196C39.8366 24.933 39.694 24.5031 39.4088 24.3598C38.6958 23.7866 37.8401 23.3568 36.8418 23.2135C36.414 23.0702 36.1288 23.0702 35.8436 22.9269C35.2732 22.7836 34.9879 22.6403 34.9879 21.4939C34.9879 21.0641 34.8453 19.4879 34.8453 18.7714C34.8453 17.625 34.7027 16.0488 33.7045 15.3324C33.4192 15.1891 33.134 15.0458 32.8488 15.0458C32.7062 15.0458 32.5636 15.0458 32.421 15.0458C31.9932 15.1891 31.4227 15.4757 31.1375 15.7622C30.2818 16.622 28.9984 17.0519 27.7149 16.9086C27.0018 16.9086 26.2888 16.7653 25.4332 16.7653C25.2905 16.7653 25.1479 16.7653 25.0053 16.7653C22.8662 16.7653 21.0123 18.4848 20.7271 20.6342C20.2992 23.9299 22.581 25.6494 23.294 26.6525C23.4366 26.7958 23.4366 26.9391 23.4366 27.0824C23.4366 27.2257 23.294 27.3689 23.1514 27.5122C21.2975 29.6616 20.5845 32.6708 21.2975 35.3933C21.4401 35.6799 21.4401 36.1098 21.5827 36.3964C23.294 40.4086 28.5705 42.4147 33.8471 40.6952C34.5601 40.4086 35.1305 40.122 35.8436 39.8354C36.9845 39.2622 37.9827 38.5458 38.8384 37.5427C40.1218 36.1098 41.1201 34.3903 41.4053 32.5275C41.5479 31.5244 41.2627 31.0946 40.9775 30.9513C40.6923 30.808 40.5497 30.808 40.2645 30.808C40.1218 29.9482 39.8366 29.2318 39.5514 28.372L39.1236 27.0824Z" fill="white"/>
<path d="M30.5671 11.3202C30.7097 11.3202 30.7097 11.1769 30.5671 11.1769C29.2836 10.6037 28.0001 10.1738 26.574 10.1738C26.574 10.1738 26.4314 10.1738 26.4314 10.0305C26.7166 9.74395 26.8592 9.45736 27.1444 9.31407V9.17078C25.4331 9.31407 23.8644 9.88724 22.2957 10.8903H22.1531C22.2957 10.4604 22.4384 10.0305 22.7236 9.60065V9.45736C20.5844 10.6037 18.8731 12.1799 17.3044 13.8994V14.0427C17.3044 14.0427 17.3044 14.0427 17.4471 14.0427C19.1584 12.7531 21.1549 11.8933 23.294 11.4635C25.7184 10.8903 28.1427 10.8903 30.5671 11.3202Z" fill="white"/>
<path d="M24.4348 5.44508C24.4348 5.44508 22.5809 3.29569 22.1531 3.15239C18.7305 2.29264 11.6001 7.30788 7.03657 13.8993C5.18266 16.6219 2.4731 21.2073 3.75657 23.6432C4.1844 24.2164 4.75483 24.6463 5.32527 25.0762C6.18092 23.9298 7.4644 23.2134 8.89049 22.9268C10.7444 17.7682 13.8818 13.3262 18.0174 10.0304C20.014 8.31093 22.1531 6.73471 24.4348 5.44508Z" fill="white"/>
<path d="M24.007 23.0701C23.8644 23.0701 23.8644 23.0701 23.8644 22.9268C23.8644 22.7836 24.1496 22.497 24.2922 22.3537C25.1479 21.7805 26.1461 21.6372 27.0018 22.0671C27.4296 22.2104 27.7148 22.497 28 22.9268C28.1426 23.0701 28.1426 23.2134 28 23.2134C27.8574 23.3567 27.7148 23.2134 27.287 23.0701C26.8592 22.7836 26.2887 22.7836 25.7183 22.7836C25.2905 22.7836 24.5774 22.9268 24.007 23.0701ZM28 23.9299C27.7148 23.5 27.1444 23.3567 26.7166 23.5C26.2887 23.5 26.0035 23.6433 25.7183 23.9299C25.5757 24.0732 25.4331 24.2165 25.4331 24.3598C25.4331 24.3598 25.4331 24.3598 25.4331 24.5031C25.4331 24.5031 25.4331 24.5031 25.5757 24.5031C25.7183 24.5031 25.8609 24.5031 26.0035 24.3598C26.5739 24.2165 27.1444 24.0732 27.7148 24.2165C28 24.2165 28.1426 24.2165 28.1426 24.2165C28 23.9299 28 23.9299 28 23.9299Z" fill="#03363D"/>
<path d="M27.2871 24.0732C27.4297 23.5 27.4297 22.9269 27.2871 22.2104C27.1445 21.2073 26.7167 20.7775 26.1462 20.7775C25.5758 20.9208 25.5758 21.6372 25.7184 22.6403C25.861 23.0701 26.0036 23.5 26.2888 23.9299C26.7167 24.6464 27.0019 24.5031 27.2871 24.0732Z" fill="#03363D"/>
<path d="M12.7409 31.0946C12.7409 31.0946 12.7409 31.2379 12.7409 31.3812C12.5983 31.6678 12.1705 31.9544 11.7427 31.8111C11.0296 31.6678 10.6018 31.0946 10.6018 30.5214C10.6018 30.0916 10.7444 29.6617 10.887 29.2318C11.1722 28.6586 10.887 28.0855 10.4592 27.7989C10.174 27.6556 9.88877 27.5123 9.46094 27.6556C9.17572 27.6556 8.89051 27.9422 8.7479 28.2288C8.60529 28.372 8.46268 28.6586 8.46268 28.9452V29.0885C8.32007 29.3751 8.17746 29.5184 8.03485 29.5184C8.03485 29.5184 7.89225 29.5184 7.89225 29.3751C7.74964 28.5153 8.03485 27.7989 8.60529 27.2257C9.03311 26.7958 9.74616 26.5092 10.4592 26.5092C11.1722 26.6525 11.7427 27.0824 12.0279 27.6556C12.3131 28.5153 12.3131 29.3751 11.8853 30.0916C11.8853 30.0916 11.8853 30.2349 11.7427 30.2349C11.6001 30.5214 11.6001 30.808 11.7427 31.0946C11.8853 31.2379 12.0279 31.3812 12.3131 31.3812C12.4557 31.3812 12.4557 31.3812 12.5983 31.3812C12.4557 30.9513 12.5983 30.9513 12.7409 31.0946ZM43.1166 31.8111C43.1166 33.244 42.6888 34.6769 42.2609 35.9666C39.694 42.1281 33.5618 45.7105 26.1462 45.4239C19.3009 45.2806 13.454 41.555 10.887 35.68C9.31833 35.68 7.74964 34.9635 6.60877 33.9605C5.32529 32.9574 4.61224 31.3812 4.32703 29.805C4.18442 28.6586 4.32703 27.5123 4.75485 26.5092L3.32877 25.2196C-3.23123 19.6312 17.3044 -3.29564 23.8644 2.43607L26.1462 4.58546C26.1462 4.58546 27.287 4.01229 27.4296 4.01229C33.134 1.57631 37.8401 2.72266 37.8401 6.59156C37.8401 8.59766 36.5566 10.8903 34.5601 13.0397C35.4157 13.8995 35.9862 14.9025 36.2714 16.0489C36.5566 16.7653 36.5566 17.6251 36.6992 18.4849C36.6992 19.3446 36.8418 21.2074 36.8418 21.2074C36.8418 21.2074 37.4122 21.3507 37.6975 21.494C38.8383 21.7806 39.9792 22.3538 40.8349 23.0702C41.2627 23.5001 41.6905 24.2166 41.6905 24.7897C41.8331 25.6495 41.5479 26.5092 41.1201 27.2257C41.2627 27.5123 41.4053 27.7989 41.4053 28.2288C41.5479 28.8019 41.6905 29.2318 41.6905 29.2318C42.1183 29.3751 43.1166 30.0916 43.1166 31.8111ZM14.167 28.372C13.7392 25.5062 11.7427 24.5031 10.4592 24.3599C10.174 24.3599 9.74616 24.3599 9.46094 24.3599C7.03659 24.7897 5.75311 26.7958 6.03833 29.5184C6.46616 31.9544 8.46268 33.8172 10.887 33.9605C11.1722 33.9605 11.3149 33.9605 11.6001 33.9605C13.8818 33.6739 14.4522 30.9513 14.167 28.372ZM18.1601 10.0306C20.1566 8.31107 22.2957 6.87814 24.5775 5.58851C24.5775 5.58851 22.8662 3.43912 22.2957 3.29583C18.8731 2.43607 11.7427 7.45131 7.1792 13.8995C5.32529 16.622 2.61572 21.2074 3.8992 23.6434C4.32703 24.2166 4.89746 24.6464 5.4679 25.0763C6.32355 23.93 7.60703 23.0702 9.03311 22.7836C10.7444 17.9117 14.0244 13.3263 18.1601 10.0306ZM25.2905 32.9574C25.4331 33.6739 26.0035 34.3903 26.8592 34.5336C27.287 34.6769 27.7149 34.8202 28.1427 34.8202C33.4192 35.68 38.2679 32.6708 39.4088 31.9544C39.5514 31.9544 39.5514 31.9544 39.4088 32.0977C39.4088 32.0977 39.4088 32.2409 39.2662 32.2409C37.9827 33.9605 34.2749 35.9666 29.5688 35.9666C27.5722 35.9666 25.4331 35.2501 24.7201 34.1038C23.5792 32.3842 24.7201 29.805 26.574 30.0916C26.574 30.0916 27.287 30.2349 27.4296 30.2349C30.4244 30.5214 33.5618 30.0916 36.2714 28.8019C38.9809 27.5123 39.9792 26.2227 39.8366 25.0763C39.8366 24.7897 39.694 24.3599 39.4088 24.2166C38.6957 23.6434 37.8401 23.2135 36.8418 23.0702C36.414 22.9269 36.1288 22.9269 35.8435 22.7836C35.2731 22.6403 34.9879 22.497 34.9879 21.3507C34.9879 20.9208 34.8453 19.3446 34.8453 18.6281C34.8453 17.4818 34.7027 15.9056 33.7044 15.1891C33.4192 15.0458 33.134 14.9025 32.8488 14.9025C32.7062 14.9025 32.5635 14.9025 32.4209 14.9025C31.9931 15.0458 31.4227 15.3324 31.1375 15.619C30.2818 16.4788 28.9983 16.9086 27.7149 16.7653C27.0018 16.7653 26.2888 16.622 25.4331 16.622C25.2905 16.622 25.1479 16.622 25.0053 16.622C22.8662 16.622 21.0122 18.3416 20.727 20.4909C20.2992 23.7867 22.5809 25.5062 23.294 26.3659C23.4366 26.5092 23.4366 26.6525 23.4366 26.7958C23.4366 26.9391 23.294 27.0824 23.1514 27.2257C21.2975 29.3751 20.5844 32.3842 21.2975 35.1068C21.4401 35.3934 21.4401 35.68 21.5827 36.1099C23.294 40.1221 28.5705 41.9849 33.847 40.2653C34.5601 39.9788 35.1305 39.6922 35.8435 39.4056C36.9844 38.8324 37.9827 38.116 38.8383 37.1129C40.1218 35.8233 41.1201 33.9605 41.4053 32.0977C41.5479 31.0946 41.2627 30.6647 40.9775 30.5214C40.6922 30.3781 40.5496 30.3781 40.2644 30.3781C40.1218 29.5184 39.8366 28.8019 39.5514 27.9422C38.1253 29.0885 36.414 29.9483 34.5601 30.3781C32.4209 30.9513 30.1392 31.2379 28.0001 31.0946C26.574 30.9513 25.5757 30.5214 25.2905 31.6678C27.4296 32.3842 29.7114 32.6708 31.9931 32.3842C31.9931 32.3842 32.1357 32.3842 32.1357 32.5275C32.1357 32.5275 32.1357 32.6708 31.9931 32.6708C32.2783 33.1007 29.5688 34.247 25.2905 32.9574ZM17.5896 14.0428C19.3009 12.7531 21.2975 11.8934 23.4366 11.4635C25.8609 10.8903 28.2853 10.8903 30.567 11.4635C30.7096 11.4635 30.7096 11.3202 30.567 11.3202C29.2836 10.747 28.0001 10.3172 26.574 10.3172C26.574 10.3172 26.4314 10.3172 26.574 10.1739C26.8592 9.88729 27.0018 9.60071 27.287 9.45741V9.31412C25.5757 9.45741 24.007 10.0306 22.5809 11.0336H22.4383C22.5809 10.6038 22.7235 10.1739 23.0088 9.744V9.60071C20.8696 10.6038 19.0157 12.18 17.5896 14.0428C17.447 13.8995 17.447 14.0428 17.5896 14.0428C17.447 14.0428 17.5896 14.0428 17.5896 14.0428ZM31.2801 25.0763C31.5653 25.2196 31.9931 25.2196 32.1357 24.933C32.2783 24.6464 32.1357 24.3599 31.7079 24.2166C31.4227 24.0733 30.9949 24.0733 30.8522 24.3599C30.7096 24.6464 30.9949 24.933 31.2801 25.0763ZM32.4209 20.9208C32.5635 21.3507 32.7062 21.7806 32.9914 22.2105C33.2766 22.2105 33.5618 22.2105 33.847 22.2105C33.9896 21.6373 33.9896 21.2074 33.847 20.6342C33.7044 19.6312 33.4192 19.058 32.7062 19.2013C32.2783 19.3446 32.2783 20.0611 32.4209 20.9208ZM33.7044 23.2135C33.2766 23.0702 32.8488 23.3568 32.8488 23.7867C32.7062 24.2166 32.9914 24.6464 33.4192 24.6464C33.847 24.7897 34.2749 24.5031 34.2749 24.0733V23.93C34.2749 23.5001 33.9896 23.2135 33.7044 23.2135Z" fill="#03363D"/>
<path d="M157.774 28.0854C156.633 28.0854 155.92 26.6524 155.92 24.7896C155.92 22.9268 156.776 21.4939 157.774 21.4939C159.057 21.4939 159.628 22.6403 159.628 24.7896C159.628 26.939 159.2 28.0854 157.774 28.0854ZM159.057 17.4817C157.204 17.4817 155.635 18.6281 155.064 20.3476C154.779 21.064 154.779 21.2073 154.494 21.2073C154.209 21.2073 154.494 20.6342 154.637 20.061C154.779 19.3445 154.779 18.4848 154.779 17.7683H151.357V34.5335H156.063V29.2317C156.633 30.3781 157.917 31.2378 159.2 31.2378C162.623 31.2378 164.334 28.372 164.334 24.3598C164.334 19.9177 162.337 17.4817 159.057 17.4817ZM123.833 17.7683V30.8079H128.539V17.7683C127.826 18.0549 126.971 18.3415 126.115 18.1982C125.259 18.3415 124.546 18.1982 123.833 17.7683ZM117.844 17.4817C115.134 17.4817 113.993 20.061 113.851 20.4909C113.708 20.9207 113.565 21.2073 113.423 21.2073C113.137 21.2073 113.28 20.6342 113.423 20.3476C113.851 18.9146 114.136 17.3384 114.136 15.7622C114.136 15.0457 114.136 14.4726 113.993 13.7561H109.857V30.8079H114.564V24.3598C114.564 23.3567 114.991 21.4939 116.132 21.4939C117.131 21.4939 117.416 22.2104 117.416 23.6433V30.8079H122.122V23.9299C122.264 20.6342 121.694 17.4817 117.844 17.4817ZM100.873 24.3598C100.873 23.2134 102.014 22.0671 104.011 22.0671C105.579 22.0671 107.005 22.497 108.289 23.3567V18.7713C108.289 18.7713 106.863 17.4817 103.44 17.4817C99.8749 17.4817 96.8801 19.6311 96.8801 24.0732C96.8801 28.5153 99.5896 31.0945 103.44 31.0945C105.151 31.0945 106.863 30.5214 108.289 29.375V25.0762C107.005 25.936 105.579 26.3659 104.011 26.5092C101.729 26.6524 100.873 25.6494 100.873 24.3598ZM90.8905 13.8994H95.5966V30.9512H90.8905V13.8994ZM76.2018 27.7988C75.0609 28.0854 74.4905 27.6555 74.4905 26.939C74.4905 25.936 75.4888 25.5061 77.0575 25.5061C77.7705 25.5061 78.341 25.5061 78.341 25.5061C78.0557 26.6524 77.3427 27.5122 76.2018 27.7988ZM77.4853 17.4817C75.3462 17.4817 73.207 17.9116 71.2105 18.7713V22.6403C71.2105 22.6403 74.0627 20.9207 76.487 20.9207C78.341 20.9207 78.6262 21.9238 78.4836 22.7835C77.7705 22.6403 77.0575 22.6403 76.3444 22.6403C72.494 22.6403 70.4975 24.3598 70.4975 27.2256C70.4975 29.9482 72.6366 31.0945 74.4905 31.0945C76.3444 31.0945 78.0557 30.0915 78.7688 28.372C79.054 27.7988 79.054 27.3689 79.3392 27.3689C79.6244 27.3689 79.4818 27.6555 79.4818 28.2287C79.4818 29.0884 79.4818 29.9482 79.6244 30.6646H83.1896V24.2165C83.1896 20.4909 81.7636 17.4817 77.4853 17.4817ZM145.367 17.4817C143.798 17.625 142.372 18.6281 141.802 20.2043C141.517 20.7774 141.517 21.2073 141.231 21.2073C140.946 21.2073 141.089 20.6342 140.946 19.9177C140.518 18.3415 139.092 17.3384 137.524 17.4817C135.384 17.4817 134.386 19.3445 133.958 20.3476C133.673 21.064 133.673 21.2073 133.388 21.2073C133.103 21.2073 133.388 20.6342 133.531 20.061C133.673 19.3445 133.673 18.4848 133.673 17.7683H130.108V30.8079H134.814V24.3598C134.814 23.0701 135.384 21.4939 136.24 21.4939C137.238 21.4939 137.524 22.3537 137.524 23.7866V30.9512H142.23V24.3598C142.23 23.2134 142.657 21.4939 143.656 21.4939C144.797 21.4939 144.939 22.6403 144.939 23.7866V30.9512H149.645V23.2134C149.788 19.7744 148.504 17.4817 145.367 17.4817ZM64.9357 17.4817C63.367 17.625 61.9409 18.6281 61.3705 20.2043C61.0853 20.7774 61.0853 21.2073 60.8001 21.2073C60.5149 21.2073 60.6575 20.7774 60.5149 19.9177C60.087 18.3415 58.6609 17.3384 57.0923 17.4817C54.9531 17.4817 53.9549 19.3445 53.527 20.3476C53.2418 21.064 53.2418 21.2073 52.9566 21.2073C52.6714 21.2073 52.9566 20.6342 53.0992 20.061C53.2418 19.3445 53.2418 18.4848 53.2418 17.7683H49.8192V30.8079H54.5253V24.3598C54.5253 23.0701 55.0957 21.4939 55.9514 21.4939C56.9496 21.4939 57.2349 22.3537 57.2349 23.7866V30.9512H61.941V24.3598C61.941 23.2134 62.3688 21.4939 63.367 21.4939C64.5079 21.4939 64.6505 22.6403 64.6505 23.7866V30.9512H69.3566V23.2134C69.3566 19.7744 68.0731 17.4817 64.9357 17.4817ZM123.263 15.6189C123.263 14.6159 124.546 13.7561 126.115 13.7561C127.684 13.7561 128.967 14.6159 128.967 15.6189C128.967 16.622 127.684 17.4817 126.115 17.4817C124.546 17.4817 123.263 16.622 123.263 15.6189ZM87.0401 18.3415C87.8957 18.3415 88.6088 18.1982 89.4644 17.9116V30.9512H84.7583V17.9116L87.0401 18.3415ZM84.1879 15.6189C84.1879 14.6159 85.4714 13.7561 87.0401 13.7561C88.6088 13.7561 89.8923 14.6159 89.8923 15.6189C89.8923 16.622 88.6088 17.4817 87.0401 17.4817C85.4714 17.4817 84.1879 16.622 84.1879 15.6189Z" fill="#03363D"/>
</g>
<defs>
<clipPath id="clip0">
<rect width="164" height="47" fill="white" transform="translate(0.333984)"/>
</clipPath>
</defs>
</svg>
