<svg width="45" height="45" viewBox="0 0 45 45" fill="none" xmlns="http://www.w3.org/2000/svg">
<path fill-rule="evenodd" clip-rule="evenodd" d="M0.630371 22.5C0.630371 10.0735 10.4138 0 22.4822 0C34.5507 0 44.3341 10.0735 44.3341 22.5C44.3341 34.9264 34.5507 45 22.4822 45C10.4138 45 0.630371 34.9264 0.630371 22.5ZM37.4376 7.10064C33.4428 2.98731 28.1315 0.722101 22.482 0.722101C16.8325 0.722101 11.5212 2.98731 7.52646 7.10064C3.53158 11.214 1.33154 16.6827 1.33154 22.4998C1.33154 28.3169 3.53158 33.7859 7.52646 37.899C11.5212 42.0123 16.8325 44.2775 22.482 44.2775C28.1315 44.2775 33.4428 42.0123 37.4376 37.899C41.4324 33.7859 43.6324 28.3169 43.6324 22.4998C43.6324 16.6827 41.4324 11.2138 37.4376 7.10064Z" fill="#15363C"/>
<path fill-rule="evenodd" clip-rule="evenodd" d="M17.9996 12.7083C17.9996 12.7552 18.0008 12.8019 18.0026 12.8485H26.9702V12.3556C26.9572 12.2158 26.9368 12.0779 26.9089 11.9423C26.663 10.7433 25.8507 9.7275 24.7362 9.1377L25.4217 7.83562C25.4642 7.75479 25.4351 7.65395 25.3568 7.6102C25.2785 7.56645 25.1805 7.59645 25.1381 7.67708L24.4436 8.99604C23.8539 8.73479 23.1922 8.58833 22.4932 8.58833C21.7889 8.58833 21.1224 8.73687 20.5292 9.00187L19.8319 7.67708C19.7894 7.59645 19.6914 7.56645 19.6131 7.6102C19.5347 7.65395 19.5056 7.75479 19.5481 7.83562L20.2373 9.14479C19.175 9.71125 18.389 10.6656 18.1103 11.7962C18.038 12.0896 17.9996 12.3948 17.9996 12.7083ZM20.441 11.2125C20.2079 11.2125 20.019 11.018 20.019 10.778C20.019 10.538 20.2079 10.3434 20.441 10.3434C20.6741 10.3434 20.8632 10.538 20.8632 10.778C20.8632 11.018 20.6741 11.2125 20.441 11.2125ZM17.9912 13.2068H18.0406H26.9784V19.9474C26.9784 20.5097 26.5317 20.9699 25.9854 20.9699H25.1509V23.3193C25.1505 23.8837 24.7062 24.3414 24.1579 24.3414C23.6096 24.3414 23.1647 23.8837 23.1647 23.3193V20.9699H21.8266V23.3193C21.8264 23.8837 21.3819 24.3414 20.8337 24.3414C20.2853 24.3414 19.8406 23.8837 19.8406 23.3193V20.9699H18.9844C18.4381 20.9699 17.9912 20.5097 17.9912 19.9474V13.2068ZM24.1069 10.778C24.1069 11.018 24.2959 11.2125 24.529 11.2125C24.7621 11.2125 24.9511 11.018 24.9511 10.778C24.9511 10.538 24.7621 10.3434 24.529 10.3434C24.2959 10.3434 24.1069 10.538 24.1069 10.778ZM29.3152 14.0501C29.3152 13.4857 28.8705 13.028 28.3222 13.028C27.7738 13.028 27.3293 13.4857 27.3291 14.0501V18.3451C27.3291 18.9097 27.7738 19.3674 28.3222 19.3674C28.8705 19.3674 29.315 18.9097 29.3152 18.3451V14.0501ZM17.6356 18.3451V14.0501C17.6353 13.4857 17.1908 13.028 16.6424 13.028C16.0941 13.028 15.6494 13.4857 15.6494 14.0501V18.3451C15.6496 18.9097 16.0941 19.3674 16.6424 19.3674C17.1908 19.3674 17.6356 18.9097 17.6356 18.3451Z" fill="#15363C"/>
<path fill-rule="evenodd" clip-rule="evenodd" d="M12.4867 36.7591V33.5264C13.1237 34.1824 14.0034 34.5805 15.0044 34.5805C17.1657 34.5805 18.8795 32.7612 18.8795 30.5203C18.8795 28.2714 17.1657 26.452 15.0044 26.452C14.0034 26.452 13.1237 26.8503 12.4867 27.4985V26.6083H11.3491V36.7591H12.4867ZM27.1758 34.4165V26.6083H26.0383V27.4985C25.4012 26.8424 24.5216 26.452 23.5205 26.452C21.3517 26.452 19.6454 28.2636 19.6454 30.5045C19.6454 32.7535 21.3517 34.5728 23.5205 34.5728C24.5216 34.5728 25.4012 34.1745 26.0383 33.5264V34.4165H27.1758ZM35.4495 26.6008H34.1679L31.6693 32.7625L29.178 26.6087H27.8584L31.0055 34.1281L30.7552 34.7137C30.4748 35.3618 29.9438 35.6428 29.4358 35.6428H29.0186V36.822H29.4206C30.5504 36.822 31.4453 36.1974 31.923 35.0106L35.4495 26.6008ZM20.7905 30.5048C20.7905 32.1213 22.0493 33.4331 23.6041 33.4331C24.5746 33.4331 25.4467 32.9333 25.955 32.1525C25.9851 32.1135 26.0306 32.0275 26.0383 31.8869V29.115C26.0383 29.0017 25.9995 28.9282 25.9741 28.88C25.9697 28.8717 25.9658 28.8641 25.9624 28.8573C25.4922 28.0531 24.5746 27.5846 23.6041 27.5846C22.0493 27.5846 20.7905 28.8965 20.7905 30.5048ZM12.5626 32.1679C13.048 32.9644 13.9504 33.4406 14.9211 33.4406C16.4681 33.4406 17.727 32.1287 17.727 30.5204C17.727 28.9039 16.4681 27.592 14.9211 27.592C13.9504 27.592 13.0783 28.0685 12.5702 28.8494C12.5398 28.8883 12.4944 28.9741 12.4868 29.107V31.9102C12.4868 32.0429 12.5323 32.121 12.5626 32.1679Z" fill="#15363C"/>
</svg>
