<svg width="92" height="25" viewBox="0 0 92 25" fill="none" xmlns="http://www.w3.org/2000/svg">
<path fill-rule="evenodd" clip-rule="evenodd" d="M29.1915 6.06909H34.2621C35.9593 6.06909 37.2375 6.53485 37.9582 7.41547C38.6143 8.21744 38.8316 9.36255 38.6047 10.82C38.1013 14.1512 36.1735 15.8323 32.8334 15.8323H31.2282C30.882 15.8323 30.5861 16.0944 30.5328 16.4515L29.9797 20.0989C29.9255 20.4559 29.6304 20.7181 29.2835 20.7181H26.8627C26.6025 20.7181 26.4038 20.4775 26.4445 20.2107L28.4953 6.68753C28.5494 6.33127 28.8445 6.06909 29.1915 6.06909ZM31.8355 12.9009C33.1797 12.9009 34.5698 12.9009 34.8471 11.0086C34.9487 10.3439 34.8672 9.86268 34.601 9.53881C34.1546 8.99594 33.2909 8.99594 32.3752 8.99594H32.0245C31.8169 8.99594 31.639 9.15324 31.6071 9.36685L31.0703 12.9009H31.8355Z" fill="#15363C"/>
<path fill-rule="evenodd" clip-rule="evenodd" d="M46.9908 10.947H49.419C49.6785 10.947 49.8765 11.1883 49.835 11.4544L48.5226 20.0979C48.4678 20.4549 48.1742 20.7171 47.8264 20.7171H45.6392C45.3805 20.7171 45.1818 20.4765 45.2225 20.2081L45.3308 19.5064C45.3308 19.5064 44.1319 20.9523 41.9699 20.9523C40.7102 20.9523 39.6515 20.5744 38.9115 19.6676C38.1048 18.6813 37.7749 17.2671 38.007 15.7881C38.4533 12.8231 40.7451 10.7095 43.4283 10.7095C44.5983 10.7095 45.7704 10.9747 46.2961 11.7682L46.4659 12.0242L46.5734 11.3179C46.6053 11.1043 46.784 10.947 46.9908 10.947ZM43.2947 18.2735C44.699 18.2735 45.8 17.305 46.0343 15.8622C46.1403 15.1636 45.9935 14.5297 45.6236 14.0755C45.2543 13.626 44.6938 13.3877 44.0043 13.3877C42.6215 13.3877 41.502 14.3878 41.2833 15.8183C41.1691 16.52 41.3055 17.15 41.6643 17.5926C42.0262 18.0383 42.5896 18.2735 43.2947 18.2735Z" fill="#15363C"/>
<path d="M62.3514 10.9468H59.9113C59.6785 10.9468 59.4598 11.0671 59.3278 11.2683L55.9625 16.4241L54.536 11.4696C54.4463 11.1596 54.1712 10.9468 53.8598 10.9468H51.462C51.1706 10.9468 50.9682 11.2429 51.0609 11.5282L53.7486 19.7314L51.2218 23.4413C51.0231 23.7335 51.2233 24.1353 51.5666 24.1353H54.0036C54.235 24.1353 54.4515 24.0181 54.5827 23.8207L62.6984 11.6369C62.8926 11.3454 62.6932 10.9468 62.3514 10.9468Z" fill="#15363C"/>
<path opacity="0.64" fill-rule="evenodd" clip-rule="evenodd" d="M65.3583 6.06885H70.4296C72.1267 6.06885 73.4042 6.53461 74.1242 7.41523C74.7803 8.21719 74.999 9.36231 74.7714 10.8197C74.2672 14.151 72.3403 15.832 68.9994 15.832H67.395C67.0487 15.832 66.7529 16.0942 66.6995 16.4512L66.1175 20.2845C66.0797 20.5343 65.8728 20.7178 65.6311 20.7178H63.0287C62.7699 20.7178 62.5712 20.4773 62.612 20.2104L64.6628 6.68729C64.7169 6.33103 65.012 6.06885 65.3583 6.06885ZM68.0029 12.9007C69.3479 12.9007 70.7381 12.9007 71.0146 11.0083C71.1162 10.3436 71.0354 9.86243 70.7692 9.53856C70.3229 8.99569 69.4584 8.99569 68.5434 8.99569H68.1927C67.9844 8.99569 67.8079 9.153 67.7761 9.3666L67.2385 12.9007H68.0029Z" fill="#15363C"/>
<path opacity="0.64" fill-rule="evenodd" clip-rule="evenodd" d="M83.1593 10.947H85.586C85.8462 10.947 86.0449 11.1883 86.0049 11.4544L84.6918 20.0979C84.6377 20.4549 84.3426 20.7171 83.9964 20.7171H81.8099C81.5497 20.7171 81.351 20.4765 81.3918 20.2081L81.5 19.5064C81.5 19.5064 80.3011 20.9523 78.1391 20.9523C76.8794 20.9523 75.8222 20.5744 75.0807 19.6676C74.2741 18.6813 73.9456 17.2671 74.1769 15.7881C74.6233 12.8231 76.9143 10.7095 79.5975 10.7095C80.7675 10.7095 81.9389 10.9747 82.4646 11.7682L82.6351 12.0242L82.7426 11.3179C82.7738 11.1043 82.951 10.947 83.1593 10.947ZM79.4619 18.2735C80.8661 18.2735 81.9686 17.305 82.2014 15.8622C82.3089 15.1636 82.1621 14.5297 81.7907 14.0755C81.4215 13.626 80.8609 13.3877 80.1714 13.3877C78.7886 13.3877 77.6706 14.3878 77.4504 15.8183C77.3377 16.52 77.4726 17.15 77.8315 17.5926C78.1933 18.0383 78.7582 18.2735 79.4619 18.2735Z" fill="#15363C"/>
<path opacity="0.64" d="M88.4487 6.43955L86.3675 20.2102C86.3267 20.4771 86.5254 20.7176 86.7842 20.7176H88.8765C89.2242 20.7176 89.5193 20.4555 89.5727 20.0984L91.625 6.57604C91.6657 6.30923 91.467 6.06787 91.2083 6.06787H88.8654C88.6585 6.06864 88.4806 6.22595 88.4487 6.43955Z" fill="#15363C"/>
<path opacity="0.64" d="M17.0884 6.77649C17.0676 6.91452 17.0439 7.05564 17.0172 7.20061C16.1 12.098 12.9623 13.7898 8.95489 13.7898H6.91449C6.4244 13.7898 6.01143 14.16 5.93506 14.6628L4.89039 21.5535L4.59456 23.5067C4.54488 23.8368 4.78956 24.1344 5.10985 24.1344H8.72876C9.1573 24.1344 9.52134 23.8106 9.58881 23.371L9.6244 23.1798L10.3058 18.6826L10.3495 18.4359C10.4162 17.9948 10.781 17.6709 11.2096 17.6709H11.7508C15.257 17.6709 18.0018 16.1903 18.804 11.906C19.1391 10.1162 18.9656 8.62178 18.0789 7.57074C17.8105 7.25381 17.4776 6.99086 17.0884 6.77649Z" fill="#15363C"/>
<path d="M16.1292 6.37876C15.9891 6.33634 15.8445 6.29779 15.6962 6.26309C15.5472 6.22916 15.3944 6.19908 15.2372 6.17287C14.6871 6.08033 14.0843 6.03638 13.4385 6.03638H7.98757C7.85338 6.03638 7.72585 6.06799 7.61167 6.12506C7.36033 6.25075 7.17349 6.49828 7.12826 6.80133L5.96867 14.4401L5.9353 14.6629C6.01167 14.1601 6.42464 13.79 6.91473 13.79H8.95514C12.9626 13.79 16.1003 12.0974 17.0174 7.20077C17.0448 7.0558 17.0678 6.91468 17.0886 6.77665C16.8565 6.64865 16.6052 6.53915 16.3346 6.44584C16.2678 6.42271 16.1989 6.40035 16.1292 6.37876Z" fill="#15363C"/>
<path opacity="0.81" d="M7.12807 6.80161C7.1733 6.49856 7.36014 6.25103 7.61148 6.12611C7.7264 6.06905 7.85319 6.03743 7.98739 6.03743H13.4384C14.0841 6.03743 14.6869 6.08138 15.2371 6.17392C15.3942 6.20014 15.547 6.23021 15.696 6.26414C15.8443 6.29884 15.9889 6.3374 16.129 6.37981C16.1987 6.4014 16.2676 6.42376 16.3351 6.44613C16.6057 6.53943 16.8571 6.6497 17.0891 6.77694C17.362 4.96711 17.0869 3.73486 16.1461 2.61905C15.1088 1.39065 13.2367 0.864746 10.8411 0.864746H3.88655C3.39721 0.864746 2.97979 1.23488 2.90416 1.73843L0.00740599 20.8353C-0.0496839 21.2131 0.230576 21.5539 0.596841 21.5539H4.89045L5.96848 14.4403L7.12807 6.80161Z" fill="#15363C"/>
</svg>
