<svg id="Warstwa_1" data-name="Warstwa 1" xmlns="http://www.w3.org/2000/svg" viewBox="0 0 940.69264 141.51631"><defs><style>.cls-1{fill:#ff6938;}.cls-2{fill:#073233;}</style></defs><title>SECUREKi Logo</title><polygon class="cls-1" points="104.014 0 66.511 0 37.503 0 37.503 29.009 66.511 29.009 104.014 29.009 104.014 0"/><rect class="cls-1" x="75.00512" y="112.50775" width="29.00861" height="29.00856"/><rect class="cls-1" y="37.50258" width="29.00852" height="29.00856"/><rect class="cls-1" x="37.50254" y="37.50258" width="29.00856" height="29.00856"/><rect class="cls-1" x="37.50254" y="75.00517" width="29.00856" height="29.00856"/><rect class="cls-1" x="75.00512" y="75.00517" width="29.00861" height="29.00856"/><rect class="cls-1" width="29.00852" height="29.00856"/><polygon class="cls-1" points="0 112.508 0 141.516 30.67 141.516 66.511 141.516 66.511 112.508 30.67 112.508 0 112.508"/><path class="cls-2" d="M167.47885,103.06226h20.11764c.61868,15.01078,11.29619,22.43874,24.29521,22.43874,10.98726,0,19.80788-5.88042,19.80788-14.701a9.98914,9.98914,0,0,0-3.404-8.04706,20.056,20.056,0,0,0-7.7373-4.33287c-2.9402-.92844-7.58324-2.16664-13.77341-3.5593a138.74114,138.74114,0,0,1-17.95017-5.57107c-9.90394-4.178-18.41562-12.68927-18.41562-27.081,0-21.51029,17.951-33.27112,40.23526-33.27112,11.60595,0,21.04526,2.94021,28.47362,8.82062,7.58242,5.88041,11.2962,14.39169,11.2962,25.68829H230.15245c-.61869-11.9157-7.89218-16.86767-20.11763-16.86767-12.22464,0-19.80788,4.7975-19.80788,14.08234.61951,10.36816,8.20193,12.999,22.74808,16.24857a155.77227,155.77227,0,0,1,19.03431,5.26173,33.66412,33.66412,0,0,1,13.46284,9.13c4.1784,4.48775,6.345,10.523,6.345,18.26034,0,21.04607-17.79611,33.11624-39.77063,33.11624C188.83468,142.678,167.47885,129.0603,167.47885,103.06226Z" transform="translate(-14.66234 -14.67474)"/><path class="cls-2" d="M273.48607,139.89268V31.56845h72.73241V50.44789H293.6037V75.672h48.43638V94.55139H293.6037v26.46186h55.555v18.87943Z" transform="translate(-14.66234 -14.67474)"/><path class="cls-2" d="M460.89144,99.96758c-1.548,27.85452-22.903,42.71043-48.59125,42.71043-32.8069.46422-52.61478-25.99763-52.30584-56.63789-.30894-29.8667,18.26074-57.41187,53.07941-56.94765,12.999,0,23.8314,3.40443,32.34227,10.21328q12.76752,9.98158,14.85591,28.31915H439.69049c-1.2382-11.9157-12.38033-19.653-27.08136-19.653-21.50989,0-32.34227,17.02214-32.34227,37.604,0,21.35542,11.76082,37.75846,32.34227,37.75846,14.701,0,26.46267-7.7373,27.70005-23.36678Z" transform="translate(-14.66234 -14.67474)"/><path class="cls-2" d="M568.29092,31.56845V98.42c0,28.93784-16.7128,44.258-43.48441,44.258s-43.79416-15.32013-43.79416-44.258V31.56845h19.96276V97.4916c0,16.71279,9.44013,25.99763,24.45091,25.99763,14.39128,0,23.057-8.20152,23.057-24.14075v-67.78Z" transform="translate(-14.66234 -14.67474)"/><path class="cls-2" d="M682.96716,139.89268H659.90932L632.828,96.71762H614.568v43.17506H594.60527V31.56845H639.173c23.8314,0,35.902,15.32013,35.902,31.56871,0,13.46324-7.89217,25.68829-21.51071,30.02116ZM638.55431,78.30241c10.52263,0,16.403-6.4991,16.403-14.701,0-7.27308-4.48734-13.15349-14.85591-13.15349H614.568V78.30241Z" transform="translate(-14.66234 -14.67474)"/><path class="cls-2" d="M700.76655,139.89268V31.56845H773.499V50.44789H720.88418V75.672h48.43638V94.55139H720.88418v26.46186h55.555v18.87943Z" transform="translate(-14.66234 -14.67474)"/><path class="cls-2" d="M828.74829,91.76565l-11.2962,11.76083v36.3662H797.33446V31.56845h20.11763V78.76663l42.40109-47.19818h26.92649L843.6042,76.29065l44.87747,63.602h-25.998Z" transform="translate(-14.66234 -14.67474)"/><path class="cls-2" d="M903.49656,31.56845h19.18919V139.89268H903.49656Z" transform="translate(-14.66234 -14.67474)"/><path class="cls-2" d="M945.5084,142.0794A9.93424,9.93424,0,1,1,955.355,132.189,9.69848,9.69848,0,0,1,945.5084,142.0794Zm0-18.17593a8.24311,8.24311,0,0,0,0,16.48416,8.24395,8.24395,0,0,0,0-16.48416Zm4.46767,13.0572h-2.08223l-2.12567-3.3401h-1.86508v3.3401h-1.82165V126.94h3.94732a3.31743,3.31743,0,0,1,3.64411,3.427,3.10851,3.10851,0,0,1-1.99537,2.99347Zm-6.073-5.03186h2.21253a1.63026,1.63026,0,1,0,0-3.25365h-2.21253Z" transform="translate(-14.66234 -14.67474)"/></svg>