<svg width="84" height="27" viewBox="0 0 84 27" fill="none" xmlns="http://www.w3.org/2000/svg">
<path fill-rule="evenodd" clip-rule="evenodd" d="M44.5422 7.09011C44.5422 8.0187 43.7865 8.76674 42.8484 8.76674C41.9104 8.76674 41.1547 8.0187 41.1547 7.09011C41.1547 6.16151 41.8843 5.41348 42.8484 5.41348C43.8126 5.43927 44.5422 6.18731 44.5422 7.09011ZM37.559 10.4692V10.8819C37.559 10.8819 36.7512 9.8501 35.0315 9.8501C32.1912 9.8501 29.9764 11.991 29.9764 14.9574C29.9764 17.8979 32.1652 20.0647 35.0315 20.0647C36.7773 20.0647 37.559 19.0071 37.559 19.0071V19.4456C37.559 19.6519 37.7153 19.8067 37.9238 19.8067H40.0344V10.108H37.9238C37.7153 10.108 37.559 10.2886 37.559 10.4692ZM37.5588 16.6856C37.168 17.2531 36.3863 17.7432 35.4482 17.7432C33.7805 17.7432 32.5037 16.7114 32.5037 14.9574C32.5037 13.2033 33.7805 12.1716 35.4482 12.1716C36.3602 12.1716 37.194 12.6875 37.5588 13.2291V16.6856ZM41.5978 10.108H44.0993V19.8067H41.5978V10.108ZM78.9636 9.85009C77.2439 9.85009 76.4361 10.8819 76.4361 10.8819V5.43926H73.9346V19.8067H76.0452C76.2537 19.8067 76.41 19.6261 76.41 19.4456V19.0071C76.41 19.0071 77.2178 20.0646 78.9376 20.0646C81.7778 20.0646 83.9927 17.8979 83.9927 14.9574C83.9927 12.0168 81.7778 9.85009 78.9636 9.85009ZM78.5468 17.7174C77.5827 17.7174 76.827 17.2273 76.4361 16.6598V13.2034C76.827 12.6875 77.6608 12.1458 78.5468 12.1458C80.2144 12.1458 81.4912 13.1776 81.4912 14.9316C81.4912 16.6856 80.2144 17.7174 78.5468 17.7174ZM72.6318 14.0546V19.8325H70.1303V14.3383C70.1303 12.7391 69.6091 12.0942 68.202 12.0942C67.4464 12.0942 66.6647 12.4811 66.1696 13.0486V19.8067H63.6681V10.108H65.6484C65.8569 10.108 66.0132 10.2886 66.0132 10.4692V10.8819C66.7428 10.1338 67.707 9.8501 68.6711 9.8501C69.7655 9.8501 70.6775 10.1596 71.4071 10.7787C72.293 11.5009 72.6318 12.4295 72.6318 14.0546ZM57.5969 9.85009C55.8771 9.85009 55.0694 10.8819 55.0694 10.8819V5.43926H52.5679V19.8067H54.6785C54.887 19.8067 55.0433 19.6261 55.0433 19.4456V19.0071C55.0433 19.0071 55.8511 20.0646 57.5708 20.0646C60.4111 20.0646 62.6259 17.8979 62.6259 14.9574C62.652 12.0168 60.4371 9.85009 57.5969 9.85009ZM57.1801 17.7174C56.2159 17.7174 55.4603 17.2273 55.0694 16.6598V13.2034C55.4603 12.6875 56.2941 12.1458 57.1801 12.1458C58.8477 12.1458 60.1245 13.1776 60.1245 14.9316C60.1245 16.6856 58.8477 17.7174 57.1801 17.7174ZM50.4049 9.8501C51.1606 9.8501 51.5514 9.97907 51.5514 9.97907V12.2748C51.5514 12.2748 49.4669 11.5783 48.164 13.0486V19.8325H45.6625V10.108H47.7731C47.9816 10.108 48.1379 10.2886 48.1379 10.4692V10.8819C48.607 10.3402 49.6232 9.8501 50.4049 9.8501ZM24.4259 18.9297C24.2956 18.6202 24.1653 18.2848 24.035 18.0011C23.8266 17.5368 23.6181 17.0983 23.4357 16.6856L23.4097 16.6598C21.6117 12.7906 19.6861 8.86991 17.6536 5.00076L17.5755 4.84599C17.367 4.45908 17.1585 4.04637 16.9501 3.63366C16.6895 3.16936 16.4289 2.67927 16.012 2.21497C15.1782 1.1832 13.9796 0.615723 12.7028 0.615723C11.3999 0.615723 10.2273 1.1832 9.36743 2.16338C8.97658 2.62768 8.68995 3.11777 8.42938 3.58207C8.22092 3.99478 8.01246 4.40749 7.804 4.7944L7.72583 4.94917C5.71943 8.81832 3.76514 12.7391 1.96719 16.6082L1.94113 16.6598C1.75873 17.0725 1.55027 17.511 1.34181 17.9753C1.21153 18.259 1.08124 18.5686 0.950957 18.9039C0.612213 19.8583 0.507984 20.7611 0.63827 21.6897C0.924899 23.6243 2.22776 25.2493 4.02571 25.9715C4.70319 26.2553 5.40674 26.3843 6.13634 26.3843C6.3448 26.3843 6.60537 26.3585 6.81383 26.3327C7.67372 26.2295 8.55966 25.9458 9.41955 25.4557C10.4879 24.8624 11.5041 24.0112 12.6506 22.7731C13.7972 24.0112 14.8394 24.8624 15.8817 25.4557C16.7416 25.9458 17.6276 26.2295 18.4875 26.3327C18.6959 26.3585 18.9565 26.3843 19.1649 26.3843C19.8945 26.3843 20.6241 26.2553 21.273 25.9715C23.097 25.2493 24.3738 23.5985 24.6604 21.6897C24.8689 20.7869 24.7646 19.8841 24.4259 18.9297ZM12.6768 20.271C11.2697 18.517 10.3577 16.8661 10.045 15.4733C9.91469 14.88 9.88863 14.3641 9.9668 13.8998C10.0189 13.4871 10.1753 13.126 10.3837 12.8164C10.8788 12.12 11.7126 11.6815 12.6768 11.6815C13.6409 11.6815 14.5008 12.0942 14.9698 12.8164C15.1782 13.126 15.3346 13.4871 15.3867 13.8998C15.4649 14.3641 15.4388 14.9058 15.3085 15.4733C14.9958 16.8404 14.0838 18.4912 12.6768 20.271ZM23.071 21.4833C22.8886 22.8246 21.9766 23.9854 20.7024 24.5013C20.077 24.7592 19.3995 24.8366 18.722 24.7592C18.0706 24.6818 17.4192 24.4755 16.7417 24.0886C15.8036 23.5727 14.8656 22.7731 13.7712 21.5865C15.491 19.4972 16.5332 17.5884 16.9241 15.886C17.1065 15.0863 17.1326 14.3641 17.0544 13.6934C16.9502 13.0486 16.7156 12.4553 16.3508 11.9394C15.5431 10.7787 14.1881 10.108 12.6768 10.108C11.1655 10.108 9.81048 10.8045 9.00271 11.9394C8.63791 12.4553 8.40339 13.0486 8.29916 13.6934C8.19493 14.3641 8.22099 15.1121 8.42945 15.886C8.82031 17.5884 9.88865 19.523 11.5824 21.6123C10.514 22.7988 9.54991 23.5985 8.61185 24.1144C7.93436 24.5013 7.28293 24.7076 6.6315 24.785C5.92796 24.8624 5.25047 24.7592 4.65115 24.5271C3.37435 24.0112 2.46235 22.8504 2.27995 21.5091C2.20178 20.8643 2.25389 20.2194 2.51446 19.4972C2.59264 19.2392 2.72292 18.9813 2.85321 18.6718C3.03561 18.259 3.24407 17.8205 3.45252 17.382L3.47858 17.3305C5.27653 13.4871 7.20476 9.56636 9.21117 5.7488L9.28934 5.59403C9.4978 5.20711 9.70625 4.79441 9.91471 4.40749C10.1232 3.99478 10.3577 3.60787 10.6443 3.27254C11.1915 2.65348 11.9211 2.31815 12.7289 2.31815C13.5367 2.31815 14.2663 2.65348 14.8135 3.27254C15.1001 3.60787 15.3346 3.99478 15.5431 4.40749C15.7515 4.79441 15.96 5.20711 16.1684 5.59403L16.2466 5.7488C18.227 9.59215 20.1552 13.5129 21.9505 17.3562V17.382C22.159 17.7947 22.3414 18.259 22.5499 18.6718C22.6801 18.9813 22.8104 19.2392 22.8886 19.4972C23.097 20.1678 23.1752 20.8127 23.071 21.4833Z" fill="#C6C6C6"/>
</svg>
