<svg width="65" height="35" viewBox="0 0 65 35" fill="none" xmlns="http://www.w3.org/2000/svg">
<path fill-rule="evenodd" clip-rule="evenodd" d="M63.0777 32.479H63.398L63.8394 33.6649H63.8481L64.2722 32.479H64.5838V33.9191H64.3761V32.7416H64.3674L63.926 33.9191H63.7269L63.2941 32.7416H63.2854V33.9191H63.0777V32.479ZM62.974 32.479V32.6484H62.472V33.9191H62.2642V32.6484H61.7622V32.479H62.974ZM64.5839 11.1911C64.5839 10.4372 63.9607 9.8273 63.1903 9.8273C62.4199 9.8273 61.788 10.4372 61.788 11.1911V14.0713C61.788 14.8252 62.4199 15.4436 63.1903 15.4436C63.9607 15.4436 64.5839 14.8252 64.5839 14.0713V11.1911ZM56.8975 7.42151C56.8975 6.66335 56.2743 6.05004 55.478 6.05004C54.7076 6.05004 54.0843 6.66335 54.0843 7.42151V14.0713C54.0843 14.8252 54.7076 15.4436 55.478 15.4436C56.2743 15.4436 56.8975 14.8252 56.8975 14.0713V7.42151ZM49.1848 2.25413C49.1848 1.49935 48.5616 0.886047 47.7912 0.886047C47.0208 0.886047 46.3889 1.49935 46.3889 2.25413V16.799C46.3889 17.5614 47.0208 18.1713 47.7912 18.1713C48.5616 18.1713 49.1848 17.5614 49.1848 16.799V2.25413ZM41.4812 7.42151C41.4812 6.66335 40.8579 6.05004 40.0789 6.05004C39.3085 6.05004 38.6853 6.66335 38.6853 7.42151V14.0713C38.6853 14.8252 39.3085 15.4436 40.0789 15.4436C40.8579 15.4436 41.4812 14.8252 41.4812 14.0713V7.42151ZM33.7772 11.1911C33.7772 10.4372 33.1453 9.8273 32.3749 9.8273C31.6045 9.8273 30.9727 10.4372 30.9727 11.1911V14.0713C30.9727 14.8252 31.6045 15.4436 32.3749 15.4436C33.1453 15.4436 33.7772 14.8252 33.7772 14.0713V11.1911ZM26.0822 7.42151C26.0822 6.66335 25.4503 6.05004 24.6799 6.05004C23.9009 6.05004 23.269 6.66335 23.269 7.42151V14.0713C23.269 14.8252 23.9009 15.4436 24.6799 15.4436C25.4503 15.4436 26.0822 14.8252 26.0822 14.0713V7.42151ZM18.3781 2.25413C18.3781 1.49935 17.7462 0.886047 16.9759 0.886047C16.1968 0.886047 15.5736 1.49935 15.5736 2.25413V16.799C15.5736 17.5614 16.1968 18.1713 16.9759 18.1713C17.7462 18.1713 18.3781 17.5614 18.3781 16.799V2.25413ZM10.6745 7.42151C10.6745 6.66335 10.0426 6.05004 9.27218 6.05004C8.49314 6.05004 7.86991 6.66335 7.86991 7.42151V14.0713C7.86991 14.8252 8.49314 15.4436 9.27218 15.4436C10.0426 15.4436 10.6745 14.8252 10.6745 14.0713V7.42151ZM2.96714 11.1911C2.96714 10.4372 2.33785 9.8273 1.56573 9.8273C0.792754 9.8273 0.162598 10.4372 0.162598 11.1911V14.0713C0.162598 14.8252 0.792754 15.4436 1.56573 15.4436C2.33785 15.4436 2.96714 14.8252 2.96714 14.0713V11.1911ZM31.9248 25.4565C31.8816 25.448 30.687 25.1261 29.7089 25.1261C28.5836 25.1261 27.969 25.4903 27.969 26.024C27.969 26.6848 28.8 26.922 29.2588 27.066L30.0378 27.3032C31.8729 27.8792 32.7125 29.1075 32.7125 30.4375C32.7125 33.1906 30.2369 34.1139 28.0729 34.1139C26.5754 34.1139 25.1645 33.8513 25.026 33.8174V31.293C25.277 31.3608 26.4629 31.7081 27.6921 31.7081C29.0943 31.7081 29.7435 31.3015 29.7435 30.6831C29.7435 30.124 29.1895 29.8021 28.4884 29.5904C28.3153 29.5311 28.0556 29.4548 27.8825 29.3955C26.3071 28.9127 25 28.0063 25 26.1934C25 24.1434 26.5668 22.7711 29.1722 22.7711C30.5399 22.7711 31.8383 23.093 31.9248 23.1184V25.4565ZM52.8724 25.5665C51.1932 25.5665 49.9554 26.8542 49.9554 28.4467C49.9554 30.0393 51.1932 31.3269 52.8724 31.3269C54.5517 31.3269 55.7982 30.0393 55.7982 28.4467C55.7982 26.8542 54.5517 25.5665 52.8724 25.5665ZM58.7845 28.4468C58.7845 31.5811 56.3176 34.1139 52.8725 34.1139C49.4274 34.1139 46.9604 31.5811 46.9604 28.4468C46.9604 25.3125 49.4274 22.7711 52.8725 22.7711C56.3176 22.7711 58.7845 25.3125 58.7845 28.4468ZM14.5004 26.1087C14.3879 26.0494 13.479 25.5242 12.1287 25.5242C10.2936 25.5242 9.02985 26.7695 9.02985 28.4468C9.02985 30.0732 10.2417 31.3693 12.1287 31.3693C13.4531 31.3693 14.3793 30.8525 14.5004 30.7848V33.7242C14.1455 33.8259 13.1847 34.1139 11.921 34.1139C8.7442 34.1139 5.96303 31.9707 5.96303 28.4468C5.96303 25.1684 8.48452 22.7711 11.921 22.7711C13.254 22.7711 14.2321 23.0846 14.5004 23.1693V26.1087ZM43.9828 26.1087C43.8703 26.0494 42.9614 25.5242 41.611 25.5242C39.7846 25.5242 38.5209 26.7695 38.5209 28.4468C38.5209 30.0732 39.7327 31.3693 41.611 31.3693C42.9354 31.3693 43.8616 30.8525 43.9828 30.7848V33.7242C43.6366 33.8259 42.6671 34.1139 41.412 34.1139C38.2352 34.1139 35.448 31.9707 35.448 28.4468C35.448 25.1684 37.9669 22.7711 41.412 22.7711C42.7363 22.7711 43.7231 23.0846 43.9828 23.1693V26.1087ZM21.2089 33.9191H18.3871V22.9659H21.2089V33.9191Z" fill="#C6C6C6"/>
</svg>
