<svg width="55" height="27" viewBox="0 0 55 27" fill="none" xmlns="http://www.w3.org/2000/svg">
<path fill-rule="evenodd" clip-rule="evenodd" d="M22.6508 0.628929C20.4009 0.785851 18.4967 2.67519 18.4967 5.33658L18.4967 18.0033C18.4967 18.4615 18.1574 18.8569 17.6609 18.8569H13.7016C5.12947 18.8695 5.88991 7.92265 13.1863 7.91009L17.5729 7.91009V4.72772L13.0354 4.72772C10.1257 4.72772 7.97009 5.81362 6.51836 7.42677C5.06035 9.04621 4.33134 11.218 4.33134 13.3898C4.32505 15.5616 5.04778 17.7208 6.53722 19.3403C8.02666 20.9534 10.2765 22.0393 13.3622 22.0393L20.8346 22.0393C21.3248 22.0393 21.7333 21.6125 21.7333 21.1229L21.7333 5.67553C21.727 4.87837 22.1795 4.26323 22.7639 4.08121C23.3484 3.89918 24.0334 4.13142 24.4356 4.70889L24.4545 4.72772C26.5787 8.19883 35.0125 21.7129 35.0251 21.738C35.2576 22.0644 35.5342 22.1272 35.7353 22.0581C35.9364 21.9891 36.1375 21.7757 36.1375 21.2359V5.67553C36.1312 4.87837 36.5837 4.26323 37.1681 4.08121C37.7526 3.89918 38.425 4.13142 38.8273 4.70889V4.72772H38.8587C40.9829 8.19883 49.4167 21.7129 49.4293 21.738C49.6556 22.0644 49.9258 22.1272 50.1395 22.0581C50.3531 21.9891 50.5605 21.7882 50.5605 21.2547V0.710527H47.3554V12.6993C47.3554 12.6993 45.4449 9.44165 42.1769 3.82385C38.9718 -1.67468 32.9198 0.603821 32.9198 5.33658V12.6993C32.9198 12.6993 31.0407 9.44165 27.7664 3.82385C26.3587 1.41981 24.4042 0.497114 22.6508 0.628929ZM13.5945 0.710541C-4.22848 0.710541 -4.0588 26.0816 13.8333 26.0942L20.8343 26.0942C23.8446 26.0942 25.7614 24.3178 25.7614 21.0288V14.595C25.7614 14.595 29.6893 21.0852 31.2353 23.6274C33.8559 27.9521 40.1845 27.0985 40.1656 21.7004V14.595C40.1656 14.595 44.0809 21.0852 45.6206 23.6274C48.2413 27.9521 54.5887 27.0985 54.5698 21.7004V0.704262H51.3647V21.2484C51.371 22.0393 50.9562 22.6231 50.3843 22.8051C49.8124 22.9934 49.1588 22.7549 48.7566 22.1963H48.744V22.1649C48.744 22.1649 40.3039 8.68844 38.1546 5.17339C38.1483 5.16711 38.142 5.17967 38.1357 5.17339C38.1294 5.17339 38.142 5.15456 38.1357 5.15456C37.9157 4.85955 37.6267 4.79678 37.3941 4.86583C37.1553 4.94115 36.9228 5.14828 36.9291 5.66926V21.2296C36.9354 22.0142 36.5269 22.6294 35.9612 22.8239C35.3956 23.0122 34.7483 22.7612 34.3524 22.1963V22.1774H34.3335C34.3335 22.1774 25.8871 8.67588 23.7441 5.16712C23.5178 4.847 23.2287 4.77167 22.9899 4.847C22.7511 4.92232 22.5186 5.12945 22.5249 5.65043V5.66926L22.5249 21.1166C22.5249 22.0519 21.7519 22.8365 20.8155 22.8365L13.3494 22.8365C10.0689 22.8365 7.58648 21.6564 5.94621 19.8801C4.30594 18.1037 3.49524 15.7436 3.49524 13.3835C3.50152 11.0297 4.30594 8.65078 5.9085 6.87442C7.51107 5.09807 9.91177 3.91802 13.0226 3.91802L17.5601 3.91802V0.704262L13.5945 0.710541Z" fill="#C6C6C6"/>
</svg>
