<svg width="68" height="29" viewBox="0 0 68 29" fill="none" xmlns="http://www.w3.org/2000/svg">
<path fill-rule="evenodd" clip-rule="evenodd" d="M17.0586 19.8231V0.937622H20.467V9.44139C20.467 9.44139 21.9222 6.90216 26.5892 6.90216C31.5839 6.90216 34.5336 10.4597 34.5336 14.8769C34.5336 15.4051 34.4938 15.9156 34.4166 16.4058C35.23 14.1333 38.0139 13.0122 42.5957 13.0122H46.7515V12.2716C46.7515 10.1952 44.9423 9.11076 42.5957 9.11076C38.9906 9.11076 38.8071 11.4119 38.8071 11.4119H35.2675C35.2675 10.7771 35.7264 6.84926 42.8448 6.84926C45.2772 6.84926 47.9462 7.36659 49.2922 9.39696L48.2721 7.47084H52.2574L57.9862 19.0428L63.702 7.47084H67.3202L56.9244 28.0624H53.1357L56.1378 22.3227L49.7244 10.2132C50.0136 10.9128 50.1757 11.7496 50.173 12.7477V20.1802C50.173 21.0398 50.291 22.3888 50.291 22.3888H47.1447C47.1447 22.3888 47.0661 21.3043 47.0661 20.2067C47.0661 20.2067 45.4667 22.9707 40.4982 22.9707C36.8669 22.9707 34.1663 21.1985 34.1663 17.9452C34.1663 17.7726 34.1743 17.6046 34.1901 17.4412C33.2437 20.7775 30.4127 22.9443 26.5892 22.9443C22.0926 22.9443 20.4408 20.3389 20.4408 20.3389C20.4408 21.3176 20.3228 22.402 20.3228 22.402H16.9799C16.9799 22.402 17.0586 20.8944 17.0586 19.8231ZM0.186523 14.9827C0.186523 8.87272 4.13249 6.84927 8.86502 6.84927C15.2887 6.84927 17.0585 11.1871 17.0585 13.9909V15.7762H3.64743C3.64743 18.6329 5.7974 20.6563 8.77325 20.6563C12.4308 20.6563 13.1781 18.0642 13.1781 18.0642H16.6783C16.6783 18.0642 16.2195 22.8781 8.98301 22.8781C2.83465 22.8781 0.186523 19.8231 0.186523 14.9827ZM13.5188 13.5148C13.5188 10.883 11.5786 9.13725 8.74692 9.13725C6.25611 9.13725 3.72598 10.7243 3.73909 13.5148H13.5188ZM25.737 9.2298C28.9489 9.2298 30.9939 11.6368 30.9939 14.8637C30.9939 18.3287 28.6342 20.5902 25.7632 20.5902C22.3285 20.5902 20.4801 17.8923 20.4801 14.8902C20.4801 12.1129 22.1319 9.2298 25.737 9.2298ZM46.7647 15.234V16.2259C46.7647 17.5087 45.9782 20.7092 41.3505 20.7092C38.8073 20.7092 37.7192 19.4264 37.7192 17.9451C37.7192 15.2604 41.3767 15.234 46.7647 15.234Z" fill="#C6C6C6"/>
</svg>
