<svg width="76" height="25" viewBox="0 0 76 25" fill="none" xmlns="http://www.w3.org/2000/svg">
<path fill-rule="evenodd" clip-rule="evenodd" d="M10.1476 19.0454C12.9564 19.0454 15.0729 18.1491 16.7297 16.465C18.4353 14.7997 18.9649 12.4682 18.9649 10.582C18.9649 9.99631 18.9188 9.45928 18.8267 9.00832H10.1476V11.5232H16.3173C16.1331 12.9378 15.6477 13.9707 14.914 14.6893C14.0146 15.5631 12.6118 16.5305 10.1476 16.5305C6.34945 16.5305 3.37896 13.5441 3.37896 9.83913C3.37896 6.13417 6.34945 3.14588 10.1476 3.14588C12.1951 3.14588 13.694 3.93365 14.7972 4.9441L16.6166 3.17021C15.0729 1.735 13.0254 0.632874 10.1476 0.632874C4.94354 0.632874 0.569824 4.76259 0.569824 9.83913C0.569824 14.9138 4.94354 19.0454 10.1476 19.0454ZM25.9887 19.0454C29.3481 19.0454 32.0878 16.5305 32.0878 13.1156C32.0878 9.68193 29.3481 7.18951 25.9887 7.18951C22.6236 7.18951 19.8839 9.68193 19.8839 13.1156C19.8839 16.5305 22.6236 19.0454 25.9887 19.0454ZM25.9885 16.7101C24.1448 16.7101 22.5543 15.2281 22.5543 13.1156C22.5543 10.9843 24.1448 9.52663 25.9885 9.52663C27.8284 9.52663 29.417 10.9843 29.417 13.1156C29.417 15.2281 27.8284 16.7101 25.9885 16.7101ZM39.2936 19.0454C42.6549 19.0454 45.3946 16.5305 45.3946 13.1156C45.3946 9.68193 42.6549 7.18951 39.2936 7.18951C35.9304 7.18951 33.1907 9.68193 33.1907 13.1156C33.1907 16.5305 35.9304 19.0454 39.2936 19.0454ZM39.2937 16.7101C37.4519 16.7101 35.8614 15.2281 35.8614 13.1156C35.8614 10.9843 37.4519 9.52663 39.2937 9.52663C41.1355 9.52663 42.7241 10.9843 42.7241 13.1156C42.7241 15.2281 41.1355 16.7101 39.2937 16.7101ZM52.3706 24.367C55.4998 24.367 58.1512 22.5726 58.1512 18.1921V7.54878H55.6168V8.51431H55.5247C54.9242 7.81823 53.7731 7.18951 52.3265 7.18951C49.2856 7.18951 46.5018 9.7942 46.5018 13.1399C46.5018 16.465 49.2856 19.0454 52.3265 19.0454C53.7731 19.0454 54.9242 18.4166 55.5247 17.6981H55.6168V18.5514C55.6168 20.8211 54.3736 22.0318 52.3706 22.0318C50.7379 22.0318 49.723 20.8885 49.3067 19.9192L46.9833 20.8642C47.6529 22.4378 49.4237 24.367 52.3706 24.367ZM52.5529 16.7101C50.713 16.7101 49.1685 15.2076 49.1685 13.1399C49.1685 11.0516 50.713 9.52663 52.5529 9.52663C54.3736 9.52663 55.801 11.0516 55.801 13.1399C55.801 15.2076 54.3736 16.7101 52.5529 16.7101ZM62.6616 1.26155H59.991V18.6861H62.6616V1.26155ZM69.9827 19.0454C72.7665 19.0454 74.38 17.3856 75.0476 16.4182L72.9737 15.0728C72.2849 16.0571 71.341 16.7101 69.9827 16.7101C68.6243 16.7101 67.6555 16.1039 67.0358 14.9138L75.1627 11.6336L74.8865 10.9618C74.38 9.63702 72.8355 7.18951 69.6834 7.18951C66.5523 7.18951 63.9508 9.59399 63.9508 13.1156C63.9508 16.4407 66.5293 19.0454 69.9827 19.0454ZM66.5985 12.9378C66.5295 10.6494 68.4173 9.47986 69.7756 9.47986C70.8347 9.47986 71.7326 9.99631 72.0338 10.7373L66.5985 12.9378Z" fill="#C6C6C6"/>
</svg>
