<svg width="109" height="15" viewBox="0 0 109 15" fill="none" xmlns="http://www.w3.org/2000/svg">
<path fill-rule="evenodd" clip-rule="evenodd" d="M43.0699 13.0963L33.7104 13.0899V8.94102C33.7104 8.38718 34.1823 7.91617 34.7421 7.91617H43.0699C44.5213 7.91617 45.6929 9.07523 45.6929 10.5001C45.6929 11.9411 44.5213 13.0998 43.0699 13.0998V13.0963ZM33.7104 1.61968L43.1122 1.63027C44.4302 1.63027 45.4976 2.68498 45.4976 3.98692C45.4976 5.28147 44.4302 6.33458 43.1122 6.33458H34.5989C34.2897 6.35705 33.9838 6.42608 33.7104 6.54231V1.61935V1.61968ZM45.5138 7.10996C46.4673 6.39269 47.0954 5.26189 47.0954 3.97954C47.0954 1.81232 45.3087 0.0464387 43.1088 0.0464387L32.0158 0.0409805V14.6679H43.0698C45.3999 14.6679 47.2874 12.8019 47.2874 10.4966C47.2874 9.09995 46.5877 7.86704 45.5138 7.10996ZM94.7713 7.36744C94.4134 7.36744 94.0749 7.43936 93.7625 7.56489L93.73 1.61934L103.021 1.61613C104.632 1.61613 105.937 2.89816 105.937 4.49098C105.937 6.0822 104.632 7.37257 103.021 7.37257L94.7551 7.36615L94.7713 7.36744ZM107.759 13.096C107.352 13.4193 106.773 13.3541 106.418 12.9836L103.174 8.92078C105.598 8.84693 107.535 6.8897 107.535 4.48746C107.535 2.02871 105.517 0.0406494 103.027 0.0406494H92.0506V14.6689H93.7461L93.7786 9.90325C93.8111 9.3722 94.2537 8.92977 94.8037 8.92977H101.049L105.104 14.0113C106.038 15.0998 107.675 15.2812 108.814 14.3979L107.775 13.0953L107.759 13.096ZM64.2682 12.9942V9.00266C64.2682 8.4546 64.74 8.00414 65.29 7.99386H72.6611V6.31146H65.264C64.9213 6.31843 64.5833 6.39037 64.2682 6.52337V1.71471H76.3027V0.0409805H62.5596V14.6679H76.8006V12.9945H64.2682V12.9942ZM15.1086 0.0764053V8.59758C15.1086 11.5129 13.6832 13.2364 9.40153 13.2364C5.10744 13.2364 3.67391 11.5132 3.67391 8.59758V2.60771C3.61957 1.18795 2.43955 0.0475091 0.992676 0.0475091V1.70101C1.51727 1.70101 1.93448 2.10299 1.98394 2.60771V9.17936C1.98394 12.557 4.66876 14.958 9.4012 14.958C14.1265 14.958 16.8009 12.557 16.8009 9.17936V0.0770474H15.1086V0.0764053Z" fill="black"/>
</svg>
